<mxfile host="app.diagrams.net" modified="2022-02-15T15:00:56.074Z" agent="5.0 (Windows NT 10.0; Win64; x64) AppleWebKit/537.36 (KHTML, like Gecko) Chrome/94.0.4606.71 Safari/537.36" etag="mlcuWpeiur1uClIS1Nb5" version="16.0.0" type="github">
  <diagram id="XqR1KpkX2eyIWRSW4Vx6" name="第 1 页">
    <mxGraphModel dx="870" dy="594" grid="1" gridSize="10" guides="1" tooltips="1" connect="1" arrows="1" fold="1" page="1" pageScale="1" pageWidth="827" pageHeight="1169" math="0" shadow="0">
      <root>
        <mxCell id="0" />
        <mxCell id="1" parent="0" />
        <mxCell id="VcqIoBvr8ESshaTQJHk_-1" value="" style="shape=image;verticalLabelPosition=bottom;labelBackgroundColor=#ffffff;verticalAlign=top;aspect=fixed;imageAspect=0;image=data:image/png,iVBORw0KGgoAAAANSUhEUgAAAioAAAESCAYAAADT8f7uAAAgAElEQVR4Aezd57NdxZU3fv8D82JqXk3V/GqmPDX1PJ4ap/F47MceZ+OA7RmcxgZ7sMc2DhhsgjEGk5NIEgKhHEgKCARCQgiQhASKCIFAgFBAgJAIEjkY49y/+jSsy9a590rn3BPuuVe9qs7Z5+zdu3f3t7vX+vbqsN+WihQECgIFgYJAQaAgUBDoUgTe1qXpKskqCBQECgIFgYJAQaAgkApRKZWgIFAQKAgUBAoCBYGuRaAQla4tmpKwgkBBoCBQECgIFAQKUSl1oCBQECgIFAQKAgWBrkWgEJWuLZqSsIJAQaAgUBAoCBQEClEpdaAgUBAoCBQECgIFga5FoBCVri2akrCCQEGgIFAQKAgUBApRKXWgIFAQKAgUBAoCBYGuRaAQla4tmpKwgkBBoCBQECgIFAQKUSl1oCBQECgIFAQKAgWBrkWgEJWuLZqSsIJAQaAgUBAoCBQEClEpdaAgUBAoCBQECgIFga5FoBCVri2akrCCQEGgIFAQKAgUBApRKXWgIFAQKAgUBAoCBYGuRaAQla4tmpKwgkBBoCBQECgIFAQKUSl1oCBQECgIFAQKAgWBrkWgEJWuLZqSsIJAQaAgUBAoCBQEClEpdaAgUBAoCBQECgIFga5FoBCVri2akrCCQEGgIFAQKAgUBAaFqLzyyivpjjvuSL/73e/Shg0b0oMPPthTEs8++2x6+OGHe/43+mPRokVpy5Ytfd62ffv29MILL6THHnssPfnkk+m1115LS5Ysyf/d8Oqrr+a0PPDAA+m6665LCxYsSJs3b04bN25Mq1atSjNmzMhhqpG7Z86cOekPf/hD9fQevz3T/c8999we56t//vSnP6WbbropPf744+nWW2/Naate/+Mf/5geeeSRBLuHHnooH5944okkv6+//npPUOm5+eab09NPP51efPHFtHXr1p5r8eO3v/1tzvOf//znfGrNmjXp9ttvj8u9jsKvXLlyj+f0ClROFAQKAnsgoO1pN9ruX/7yl7R69eq0bdu2PcI8+uijPTpQu6ZrfO66666sf2r1Cp21YsWKveqbPR6wjz/ipy/oYnLnnXeme+65Z4+7fvOb3yQ68f7778+6Rzpvu+22rA/3CDgE/tCLt9xyS9avcJYv+YG383QdoWvvvvvuRC/vTdgv9xL6eOnSpb10tzKbP39+euqpp7J98bxnnnkmhf6N+N3PlhD2kZ2qCn2+fv36tG7dupxutlJ4das/UWbqXV8ifnXp97//fb4Mj1rbyU6+/PLLPbfDRXxxT8+FNv8YFKKicSxcuDBXjJkzZ2Zju3bt2rR48eJ044039gALSAUPPBVCxVFI9957b7r++uuzMVZIFIGPSnXBBRdk8uG351SNOKVw3nnnZULwox/9KDfI8ePHZ/IiHuEVgjDCIkwUyyWXXJKfr4IJU5Xnn38+HX/88b0qnTAIisK/5ppr0kknnZQrn3z6L71V8fwRI0Yk1x3jelRm1ymUadOmpVGjRuU0wSqUjOtE+uVJ5VLxf/3rX2clBI+Ik+IZPXp0knb3+X3KKaf0NFLxuAZrSkuaPvOZz2TcNOwrr7wy419Nf/ldECgIvIWAdqvt/fCHP8xt8tprr82/tdl58+b1kAHtWUdNR4YupNfoQSSHLmM4tdFdu3bldrh8+fJ0xBFHZB0nLp2aWp30Vir2/osRQqR+8IMfJPHSb2eccUY688wzcxrpL4LECEsnXHrppdkw0y1BuuQ1iE71iXSO86GbXKOP5cm1viTucV/oPvmr/q+9T3zi9Rz3M6LCOx9xuMd1+ot+37RpU7rqqqsyzvK1c+fOnB86EomYPHlyOuecczLBYAfoQXYHTggCoUeVGf1I/B4zZkw+X80zUie+3bt3p1mzZmU75pzfgYN0IjNTpkzJcU2YMCHrX38ijDqifrBNjuJQv3Q0/Y50uUd88jJ37txsM8ThU8XD80888cRMVoRjx2644YZc9kG+YAEH9sT96qb74K1cqvnMCW/TV8eJCqAUmEqOvZ9//vnpwgsvzEekRIP0UdGANH369Nyz4EnA/jQUFYR3QoV0HoHx0eCPO+64XNgqIoaMZADUfyCPGzcuN27xKmxK44orrsiVEMb33Xdfrsh+88BgrFdffXWuoCoD8Vxp8NmxY0dWSAoSc5Y3v+VTGoP1Ihd+y5uK5qiQHeWTXHzxxblyCkt4e+SZaCAUk4qM5M2ePTunK8iLZ5JJkyalyy+/PD/DPVOnTs33jh07Nldo6ZJuniK4qPyIh2fBR+Mm8oLBIysaKk+PtEib9O7NO5QjKF8Fgf0UAe1aB4Xhom/oDZ5PCp5Xlp7SBoXTLhl9PWWGk8Hg3dSedTjoGr/F4X76UptmPMRFH2rnAxE6lr466qijsi4Uz2mnnZa9yYw3Q+dDF9AL0oLE0NuMlvN0GiP/uc99Lh199NE9nSFhDz/88PTd734355Xeke6LLroo/fSnP835rE0zjwNdLJ/0HPwYRDgccMABvTwMnk2/sx8/+clPMglhBz784Q/nexAS+NCxBPFCBo488shsvN3LIDP0CBsiQuhFupbRRiSVB71Kb9OV4fF3XTrZEXpy5MiR+T+dqiwJnJQZG6KzfdZZZ2X9TG9LW3gwpPGXv/xlTqP74KBOCCdPRB3i6ad7pUPdUpcQJfYM5oRNQmDlRx7VFc8WFxtLXnrppXTZZZdle6nM6XXpR1a+//3v55EDaeehV/cQNd6UiRMn5jg9U1zqRyek40RFpjB34CArCtsQi0bnw9vgv4LzXyVgJIkGovdfFQ1AI1K5APurX/0q9/ydV3AaE1GQhlY0QI2TEfYMrkDKgWJxD7KAFXO9+a3xIi+uO08UmMqo8Bh3rFbaVAaVb9myZVm5qGgIEnasgcuv/+5TwSkKFTVcju5V4SkvlVEF15AoNF4WFTBIgvTr5eh5IS0atGsatOdRbuIn4j/77LMzRhSkOFV0Dc+90kQ0DvcifyGw11Bgo2KLq0hBoCDQPwL0EKPIiGhfjIv2rjPAIPCuhGhv0cYYM/qQYXQ/Q6QNa3t0i7an7fIKaJM6WQws3TdQoVt4e8UjvYiEdIYgA55Jl3kuMiKddLh86RRJH1Lytre9LYdzL9Lxzne+Mxtfz6CP3vOe92S9GkNi8QxHhhPhoIvpMjodOfCB4ec///ms36v3IBjvfve7s16kfxEIuL33ve/t0ftf/vKXs6F2n3Qwut/5zncyOZEPaWGL6OToMAqLLDHsDD3s2R0dNeWovNiWc889NycHdjzSDDd7I++8aZ6nQ/jBD34w2zJGnQ5V5uL2X10h7N4nPvGJTOri+UiB+sJGEflVPu5FhPxXJuJkn0LYEOknyA38iPTreHsm+6L+wFxcOr/IDXIXw0/KjM1ERNlDdlP5sMvyyJ4pt07IoBAVFVuFwW6RAQaSa8w5/0MM/WDhUYEUjIrTnwAfe8TEowJEWJVLRfZBDhwBroBChFHBEA2VTqEpdC5YDBKzJ5RHsFfER0WXp6qohMJodPKmgqtw4VVRiYmjyqhCaJQUEAWlYkQFEwaZ4OGhIBAlikOFD0bueSotVx4SpXJJszToHfjE86RZPsWFFApPHJEx8VdFQ1DJKSkEqUhBoCCwbwToEO1O29Vb1t78Z2iIdq3NM2Z0nzaGxNBzdAx9Ex5ObVk71Fmh53Sy6IeIa9+p2TMEfUGv0h960XQLw+SZ9BWy5BnC0WEhDJuOW60gUUiDzpU0680feuihmQQJSx+feuqp2RjLa63QZ0hF9Vn0/8c//vGsp7/+9a/X3pJ16fe+97100EEH9ehBROX9739/xpI+Q6AYZAJvOv1f//Vfs51hf+SFXmOk6X8i3zqgsKWb6VUfQocrG4SErfFf/GyEYXe6lY43hAYHuAqH7BH2S+e7anfgznNz+umn5zC+6OfDDjssk4M4iRzQ+QgWfJWdzu2xxx6bO7IIFXFNOcoHwuIeZY0Ee3bYRphLm7SweUiN8q12RtU3dUHe1F/22T1wE44d7YQMClFRuCoJRm68lVHWCDVGRjokGqfCJ/siKoDTeLG+qrFVQTVu7Dm8GhisQqRMpAXgChabRI5cVyDh9lP4Km2t9EdUIhzGiQzIi4bnmTwmQXSEk3dkTSUw+QnZUHngRITlPaHQNCaVhodIWik3FVDj0EjlPRSBBohpw1ljCOHOkzeiMcKc54jS1AhrRY9BL8R1WBYpCBQE9o6AdsJoM0B6ojyaDAv9w4AyHMJo+9oew6KNIiq8p9o2fRDtkf7RZhkabV7HRvzR1veemt5XxUvn8ST87Gc/y/HRTfSQZ9MZjFSt9EdUpIdO+uxnP5t1Kr3JeCNBJIwjHP75n/8555nu+cUvfpGHQxjKL33pS3t0+HS2DOOI92tf+1ptUvJ/ugxZ4bVACOlKv2GDONGNIWwAsmT4Rfp4EoKo+K+TSJAKHhr2Qtnwphieo3uFgxsSopyUqXjk3/3yJN2eEToepnQ2QUZ4rNgq5c8bRnezDYZe3INAIF/IU1UQEZ1iZcNmsSOwkVZkJTqj8iTN6loMt4lfB969URauh4dE/WKn2L3wsOt888C7T31BWtkKdbDTMihERYEec8wxuZAApRB5HBSQBhuCffJ6hCiQ/jwqKiF2qZIx2HoF4YlRITQ6Fc8RaUCQVCgsVYUwDCIcRaHiITAqH9emisazglDVimepPP2JSqGSU0JYuIoijVUPjIqKlKhcKuPJJ5+c0xZxqiTSLo0Ii8qiUrvPeZU+eiLiD9dtuDarjVWcKp+GpMHBXaNWuaVPPHCoikr8V3/1V1mpVs+X3wWBgkDfCGjfjBpDR7GfcMIJ2ajpDNEpjAKhs3gxo8dND+jZugdRYcgYY+SB258x4hVwXdulB+jNgQjdJB3SwEBJo44eQsTg0lu1orNGV9QKPc7A8aIYpqGPDY0EUaGnwithjop5EHSsIXH5RAIMQTkXIi2IBZ32la98JU5nksDwyrcj+dCHPtTTyf3IRz6Sh68NxxxyyCFZxwtDd8Y8RbqfXtcxpNerXhNpp2vpR7gjQmwEwslWeSYdqjwI4ikcQ86ewE2+QpAF9yEGjH547HVyPYewI3CHobDsXBCG6LCyQYgdGyE8va/ewA7+MQQIF+khngU/IizvDzLEdsizc8pd/tQlNg9G0oCMsTXiJrAyZUB9ZIuloVMyKESFZ8CkVwIIhpIxRCIY6xAkRWUydsozACQuVJWeEVZwjCoSoDAohigsQJskpmErmKrxVZEw+1pxr+eoqO5RsSgRLi/KQ1qJColJI1x6NOaoSD+Wi+goyKpInwoiPSp1iOfJi4av0qiESBISByP5RTKqpMa9lJTn9CXOY9nihY90+y9tweJVwIMPPjiTQPFzDRIY6a0hRn57roqOuUu/Cv3Nb34zx6miFykIFAT6RkD7oUe0bfqDgacXeDB4GhAYwtjRMYyPa4yBtstgu4eO0IGgbxhanS96gn7QBsXdF6HoO1VvnWVoGTQGh3GVHumi8+gA+tWwRQgd5pm8tHRdVXivrQpEdlyjv5AgQxeGc+gbxvSTn/xkfoZOEn1UK/Q8Y0nvBxGTRzbhXe96V0/vX5zSTjeZ10EvIyV0t+e//e1vz3mA9ze+8Y2s6xDE0LdwhbFniUP66UppQh7oPUZYGHpZx5HuZGPCGyFuz1S+OsW8UYTuhKlnhPBEI34MvviNDPCAIGaueV545h0Ju6dD7XnxXISK3kZQlY20I72u6+ArUyIvvD3qFN2NMMIWYUJgxIl0sbfSLQ3yqS4iLvAQv3CIonPIGZzZVXkWv3JWLzohg0JUFHK4LDE4FZwgABpIiIolrA/QNNiYvGOuRDRiIPfVWFXm2gYhHpUgSEc8q/aoYrs/Kk6QoQgnLRqgiqlSi9ck1EhfhIujcIy9/FZFHD7yLk/idYzKW1sR5JP70HBMX4IIqdBBNBAuH2mLiuw+lZP3RKVU6ZAilV3vhgivUmr40kfcj9jwIPXlXcqByldBoCCQh5EZA3qBhCFDRKoeTsZL7144+syHLnCuv84I/UU/NCtICQPGCOnQMK70i7YdHp/qM5AZuqJWJwnDM0B3VQVRo0dDwiNMn/cndA196hmBnfDwcM41pC2E18Mz6FcS2IXOcgyvi+u8E+Gll1fXPYcuDN1N50dHTHnQjfDW6WWcESKi7NzLcCMHxNF8mgjjHELBOyTtIeqGtMTCBTo60iWMMjYFgJ1CaoJMIZHwoN/VJR+EA/kJgYnyhIWwniH9CAedHoLIuE84YrpB7RxEBE1axXfggQdmbwsCByO2Qhl3QjpOVBS8iqaBcG0F2Ni63oFCd94H4D6uucdvBea3RgYw8bgnwsS9/gsvfvHGeRUIU0VC4lz16D7/FaJ4PcM5H4TI/a77Lx2ua4COnidd1fjit2t+e27EURuPvNXmsTY+6cLY5Svirh6dl05pi/SJMz7CwkMY5+AHDxVWJVaZ4zqPkbRGGiJ9e8Ovmpby+416XHDYv3DQfrRTbYteUP4Iv6Nz2qi26X/oO+GqH/rFtaruinokrqoOifONHrVv7V18vDmMrGc653/12ZEe+qt63jPlRQ+cPhHO0Xl6EUnw23lhnAsdXpteYeia+EQ8/vPIxHm/Q7/5LT7X3A9D5+Je1zzXNc+Dv/xGWOFDT4pDGOUjnPPyKrxwdCavfdgO4ZwXxjX3uiZMFSPh4BlpEC8cfOKZyrNa3uLR6fQJL0bUG/eIwzM9R7zSG890PtIvbODtGeKQTmHlS1h5cE6dra1XwjsnPYiqo//w9QwEqxPScaJi8phlbOVTMCh1oNSBUgdKHSh1YOjWgdoJv+0iLR0nKuZLmEhlN8TyKRiUOlDqQKkDpQ6UOjD06oDd3Ts1BaDjRKVdjKvEWxAoCBQECgIFgYLA8EOgEJXhV6YlRwWBgkBBoCBQEBg2CBSiMmyKsmSkIFAQKAgUBAoCww+BQlSGX5mWHBUECgIFgYJAQWDYIFCIyrApypKRgkBBoCBQECgIDD8EClEZfmVaclQQKAgUBAoCBYFhg0AhKsOmKEtGCgIFgYJAQaAgMPwQKERl+JVpyVFBoCBQECgIFASGDQKFqAyboiwZKQgUBAoCBYGCwPBDoBCV4VemJUcFgYJAQaAgUBAYNggUojJsirJkpCBQECgIFAQKAsMPgUJUhl+ZlhwVBAoCBYGCQEFg2CBQiMqwKcqSkYJAQaAgUBAoCAw/BIYdUdm6dWtaunRpWrVqVVq5cmXXfVasWJEWL16cHLsxjdLkjZgLb7k13Xb7HWnJsvLpNgxuu315unnR4nTLLbem5ctXpDtuX77ff5bfsTwtW3p7WrhwYde1+dBDq1evzrpJ+/c7znfzkT5Yvnx5WrJkSdYL3aizOo0fDOhvmDh2+vn1PE8aly1bljZv3jwsWMuwIyo333xzWrRoUdqyZUsuJAXVTZ9Nmzalq666Km3YsKEr0wi3FStXpbMumpCuWbw2XX3L6vLpMgzm3LYujZw4PV1yyYR0z533p1XL1+33nztX3pNuuWlpOufsEV3V3qu6RycKkdL+/a5e69bf9MH69evTnDlz0po1a7pSZ3UaO5g88MADaebMmenee+/tynKURgRTp3M4yLAjKrfddlt67LHHurpsVJ4//elPXZvGZ557Pk2cOT+tfeyVtGbbC+XTZRjcveO1NH3B8nTttfPTb1/+c3p+12/2+89Lz72etm3emaZMntq17UrCGJChZjx+97vfpbvvvju9+OKLXY1tpxPHa/H73/++04+t+3nPPvtsuueee+oO380BhyVR0VvpVvnzn/+ckKnf/va33ZrE9ORTT6fx0+emVVufSys27SqfLsPgzkdeTFfOW5quvnpueunZ19PTO1/Y7z/PPPVy2vTAo2nSxMld264k7MEHH8ztv6sTWZO4V155Jd15551p9+7dNVf2378ICsL56quvdi0ITz75ZCaYXZvABhJWiEoDYLUiaCEqhfg0S/4KUelNzApRaYV26juOQlR641KISm9M2nmmEJV2ottH3IWoFKJSiEpvotGsV6gQlT6UTYtOFaLSG8hCVHpj0s4zhai0E90+4i5EpRCVQlQKUelDNXTtqUJUehdNISq9MWnnmUJU2oluH3EXolKISiEqhaj0oRq69lQhKr2LphCV3pi080whKjXo/uEPf8iTxnbt2pVeeuml9MILL6Snn346f1oxcaoRovLaa6/l50pLTL6VBumRrueeey7/fuqpp5IZ3mbnh7z88svJfcI2Olu/TKbtbjJV5qj0Jjpl6CdafuuPhaj0xrQQld6YtPNMISo16CISo0aNSl/4wheSWdNmu3/kIx9Jo0ePTkcffXS+9sc//rHmrvr/NkJUNIaf/vSn6cgjj8zExFMeeuihdNFFFyX7sdgv5rOf/WyaMmVK3pvhxz/+cZo2bVqSPgTlwAMPTCeddFI6/fTT0/HHH5+JTT0pLUSlEJVm54x0+v5CVOpp2QMLU4hKb9wKUemNSTvPFKLSB7o2ZPrYxz6WkIqdO3emd7zjHenhhx/OS72QFuvnByqNEBXPOPbYYzPZCHK0ffv2dOONNyaen3Xr1mWism3btuxxsWb+k5/8ZLr00kvz9QMOOCDNnTs3uedDH/pQJlv1pLsQlUJUOk00mn1eISr1tOyBhSlEpTduhaj0xqSdZwpR6QPda665JhMAlwyfvO9978sbNdky+QMf+EBTm+g0SlR4RM4+++yeDeJ27NiRt+D/y1/+ku6777705S9/ORn6CTnrrLNy2p372te+lubPn582btyY3vOe96QJEyZEsL0eC1EpRKVZ4tDp+wtR2WuTbupiISq94StEpTcm7TxTiEof6M6ePXsPovLe9743XXbZZenCCy/Mwy7IxkClUaJy4oknJuQjdrJFVAz5iMf2zQcddFB64oknepIzadKk9PGPfzx7gL761a+mESNGpPHjx+fhn3o3bBpORGX11mf73bBu5ebdyae+ya1vhXPPqi3P9Hnfys3P9HutvufsmyS1ao7Kride3GOjuGeffiXtfvKl9PTOF1PttSAez+/+Tb/XhHHfG3G8MY/kuV2/2eN/xCOc5/X3nAhX77EQlR4V0PIfhaj0hrQQld6YtPNMISp9oNsXUfEOoarnoo/b6jrVKFE55ZRT0hlnnNFDVB5//PF06623Jh6VICrm0oQcccQR6ZBDDsk7JvK2ICmGfhqRdhGVIAZxDMPd878P0hDX4uie+B3HiKd6XPUmQblhxf1pxUNP90lI7tj4ZFq6YUdaueWZtPrh5/Lnzkde6JNoLM9xPJPDuueWdQ/n39VnSs+Se7enRfc8khAkZMY5x70Rpmoc9fxuFVHZvu3pxMAjCwjI+rseTA898Ej+v+Ox3XuQmN1Pvpz/L120Mu14dHcOXyUkQVIef2RX2rb5iUxCEJHbl6zOW9t7TpAOz9u5/Zl09533pye2P5vT4Ppzu17Nn4GQl4EQFW3o9ddf36NpeP1GEHrXhKmK/97zwlANRPbXnWlr8YKxThexUKAWZ+fNw0OS+hPD4bHIQBhl19+CB+8DsjihVTIQolJd7CAdvPWmFhBD+X1hQN9bGDEQKTvTDgS1Dt1je/pmt9CfMWNGnushybwV//Iv/5KHflqRhUaJyvXXX58n1Iby9DLDG264ISfFHJUvfvGLedKvE5dffnn63Oc+l+eu+G+irfsblXYQlVVb3jDcSANjnA34m2QijHmtkWbgfZCEuMcxn9/6bD7fFwlw7sZVG9PCO7ekGTetTPNWPJDvifg9z+8r5t+eps1dkhau3ZIun7csTbrm5nT0ySPSnKV3pyA6wiIxsxetTXNuuyetfeTFNGfpPWns9Hlp7WMv7UGA1j76Upp+04p00bRr0pqtz6UbVz2Ylt2/MxOXmTevTrwtkYZmjs0TlTe8HivvuCvNu/7mtPnBx9LmjY+lW29amu5cuT4tWrgsrVp+dyYsSMOuJ15KWx/angnHpPHT0opla9PNC27LRAMZCQLy3NOvpoc3PZ7mXrsgbXrgkXT/+i3p6hnXpYc378hkJMKJ88nHn0sL5t2aHtnyRLr37ofSvLkL07VX35CmXzE7bduyc4/wcd/ejgMhKtqFd+8sWLAgT1a3co7+MFR6//33545Ate0wgozd1VdfncwL8/6bRx99tBpkn7/3V6IC22uvvTZP6LdiEQmxUIF+9ZbfqhG32hJJNL9OOGWBaNQKw04HGgInhub760x6oSKjjxzQoeK87rrreohCbdz7+j8QooJw3HTTTen555/PqzSl46677spkbOnSpXtgYKUmDG6//fZc1+Sz0ff2FKKyr1IcxOvNEpXf/OY3yfCJFT4Ij1dq//CHP8zzQlqRrUaJisoqPeeff34+WtUTjdEQ0OGHH54uueSSNHXq1HxdwyaPPPJIXi00efLkJE+NSKuJCkO/5L7t6ewxl6VjTj43HXPKuenYU85Nt969LRvuk88fm771gyPSxNk3p+Wbns6kYs3Dz6X5Kx9IJ464OB1z6rnpmJNHZAKAdPz8xLPSId//afrFqeelI44/Lc1efFcPsUAAEIjzxk9PE2cvzJ6PsdPnJ94TBMZ1R16REWOvzNenXLc4nXrhhHTl/DuStMxf9WBPfLc/+GRaev/OfO70UZPS9cvuzemcveSutGDNQ5nkrNj0BvGZv2pjGjnl6vTzX5+VTjjn4nTqhePTaSMn5Tz7vWbb811CVF5IT+14Pj2y9Yl056p700P3b0tzZs9L0yZflW5btCLNuWZe2rhha8+QjRf+XTZ1Rjr1lLPS6JGXpsunzkiXXjIxExZeEARCfDwt2x95Oi1dvCrdeMMtafylU9LUSVekaVOuSjOumJ29J8LfctNt6eLR49JFI8ekE355cppx5bVpzMXj07gxk9I1s27I8TXqVRkIUdEWtQ0Gg2GgOyZOnJgNH+Np5VxVVqxYkT2UwiA3DC+vZolRnP8AACAASURBVCOyPxIVhIJh9xZmHhBG14IF2MEU2VMWIYginWdRAMMOa4a8KuJDbqyCpAeRFJ5wc/KUS5SdI0JyxRVXZB1Kf+q8IQDCIi8DkUaJCgx4gKSX94RX7sorr8x1zTuDELEqBmwPbzgMeNCRY/lqRApRaQStDodtlqiE8tJz0hAQBcqs6mJsJkvil8ZG4lOx7ZmCiVddodKml+e8j8YT4rd0+1QbQFzf27GVRAXhWHzv9nToT45KPzn2lDw0cvNdWxOjj2zc9dhLmRwc9M3vpHkr7s/eC16MddtfzoTk2z/8WRLHtUvWpQsmzsjDON878rj08c98Ma1++Nn0o6N/nQ78ysGZ9AiHDNy0ZlM6b/xV6aY7N6X1O17LHpCJ1yxMax95Ia3e+lz2glx54x1p9OXXpcnX3JJOGzUxTZh1U7ph+f3poqnX9AzdIFi8KKOmzk5jZ8xP5467Ih35qzPSiEsvz+EuueL6NHvx2uzZMbQz9bpFacyVc9PEWTdlEnT+hOlpxk2rMsGSlpVb3prnMpgeFUM2a1fdm9auvi97Tdav25humr8oTZl0Rf6MHTMx3XfPQz1E5eXnX08Txk5Jvzj2hHTh+aPT+edelKZfcXX2miAI4kNSeGeuvXpemjr5yjTirPPTlZfPSotvvj1tWL8pe1WQGeEdLx0zMV03e146b8TINPe6m9LsWXPTitvvzF6aF555rcdLszcvSvXaQIgKRW64gBFh0NauXZsN2pw5c5IJ9a5VRbsdOXJknpTOkDKi4bqvhtvb7/2RqNBRYaB5S3gz5s2blz3DsIZ7VUcJC2dbQjDmSMXy5ct7YFVevFkMuGtjx47NnTVEyHCSZ8QqSTchnTqcOnPuQY6QoWY8740SFRggxPQ+XY2oWL3JO44wyV/MQ5RmHrtzzjknXXDBBWn69OmZrC1cuLAHg3p+FKJSD0qDFKZZotLuZA+EqLQ7TbXxt5Ko3PP4q+niK65L73jne9O0ubele3b8Jq3b/kq6YfmG9O8f/kSasXBlOnfclemQH/w0ezfWPPx8JhJ373g1/eL0C9L/fed78jDLusdeSbwb6x57Of342JPSF75ycNr2ako/O/HM9Nn//Hq+d+2jL+Z7R4y9PJ0/YUb2fsxedFcmEL86e3QafdmctGj9o3kI5pxLL0vHnzUqe3lm3bomnXDO6HT2mGnp1AvH9RAVZGL5Q09lIjLrljVp8pxb0zljL0/jZy3I5GXp/Tt6hn6Qr3Ezb0ynjpyQLr3qhnTBpJnplAvGZfJz5YLlaXF+bvcQlW2bd6RJEy7LwzOXTZ2ejjnquDRl0uXp+jkLkuGdB+7b0kNUXnrut9mLwpsya/qcNGb0+Exc3hgWemtCLsJy77qH0rnnjMxelGuunpuO+flxad2aDQn5cH3b5p1p3Z0b0sUjL03jx05J48dOTaMuHJOumTU3k6fVy9el3W/Om6kSkX39HghR0RnRS2VEEJPTTjst98r1zhnS2t42AyccAzNr1qzcM68OWdS2o77+749EBbHg9WCgkTskj/E17w+mSESVWPAKz5w5M3tCbrnlltyxM3RTFUbdEBLioQx5U8aMGZNJT4RDJgwteQ4vCtLjo/wQU2WhszcQaZSowGDx4sV5kQMPkb2vLNCQP94U+RBnCI847498uQ9JcV8jUohKI2h1OGwhKs0D3jKisnl3uvvxV9PJ541J//h//jnNW/lAMlmV12PhnZvTJz77peyd4P04+PuHJ8YeUUEQ1mx7IZOKbx92ZPr//uHt6eDvH5HvWb/zN3m45wP/8cl0/FkXpf/+zg/TlDmL3hyqeTpdtWB5unT6DdkDcthRJ2QCcuQJZ6bTRk5MJ507Jl2zZF0yX8ZQ0IhxV+Y5KtOuX5ImXr0wXbd0fTp33FXZOxNzVFZs3p0QoLMunpp+8LPjM0n63pG/zB6Tux59a47K9IUr0/njr8rDPadcOD6dMXpy9hQZ3jKhF0nqiXPTvlf27M3j0vwclRfyZNedjz2Tli1emYd7Ljh3VLp14bJ0w3U3pYnjp6UHNzycYgLtKy/8IU0YOzVNGn9ZWr70zjyXZMzocen53a/lya9BIl589vW0esU96YTjT043zrs1rVq+Lk0YNzVt3LAtP88clvvv3ZJJz9RJV6brr70xXX/tgnTH0jV56OnpHc9nL8uG9Ztz+Ii3nuNAiIqWouOg98oYMKDmDOjdIiox2TNaFN3CYOi5M7ADmf+1PxKVwA+eMIQbnO1HZdijlqgYEjLUIQzvC3LTl/fDvBdD24glbwUyVF0BiYB6BmOPCIhXmCA9ylHZD0QaJSrxDMP2MECupM1HnaglKsia4SrYuM7rYk5PI1KISiNodTjsQIiKoRUf4qhBqeS1Egy9ynxrw+zr/0A9Knp/IXom1QYZ5x013hifrZ5v5HeriIohHETl7EumpX/8v/+ch0lMOEVWDM989IAD0/iZCzI5yERl3cOZxLhv+can8jAQUnHWJVPTO//1A+mQHxyRGOmfn3hmev+HPpa++b8/Tl/79g/S0g0787yU2zY8nubecV+6Y+NTadHdj6SRk2flibQIyR0PPpnTYuhn1Zbd6fL5y9Jxp1+Y57dMvvaWdObFU9KYK25IZ10ybQ+PCsJgCMjcE3NdeFPOuGhymnztrWntthd65pzc9djL6ea1WzJZMdfGcJJ5Lzeu3pjmLr8vnX7RpDyEtTcCUu+1VhAVJGXrpu3ppnmL8sqcC8+7KK1ecXcmIlMmXpEefHOOCgJgZQ5Pyqzp16XzR4xM550zMq24fW0mOCbCCoNMvPDMb9Oalfeko448Noe5eNTYNHrU2DxRNybdWl1koi0yZPjoxF+dnJYsWp6uvGxWPj9p3LQ8oVe4eghKhBkIUdGLN0ygx80gIio2djQsoNddXS1nIiSjgsSYO8Alb4iCsdP7rVf2R6LC6wRrwxyG00yShTFPgmEfxjj0L70LI3NSkBArHs1pcc491SEiw+HKwscwES/FM88806sokBPeCMae10U5mlTrv/IeiDRKVAID9Ue9QlQQJ5O5zdFBVMI7Z3gITs7xugQG8EJgqkNEe0t7ISp7Q2eQrw2EqKj8FJPKS3FpSFFpqtkRTsXC7v2mpDQo46zR0Krh+/rtPmlsZI6KeBAQDYuY/a3C9yUaOuZtlZCPGfHypudSr7SKqDC8vA7XLVufPvzJz6TjzxyVNjz1+4SsTL1+STrgS1/NQyeGXBCVW+95JK17/JXs0TDfY+bClcmQy6bnU5qzdH366AFfSMseeCIdftwp6YtfPSTdu/O19NVvfz8d/otT0vKHduX5J+apWJkzYtwVyUqbRfc8mk4ccUl+DgIkTY5z79iQxs2Yn6ZetziNuWJumnD1gnTnwy+kcTNuzCRndWXiKw+Q4SSTgS+/YWke2rFC6M5H3poce+e2F/JcmGNPPe+NSbSjJuThp+uW3pNOGzkhnTl6So+3qF5C0l+4ZokKo77qjnXpxBNOSevveiB7PsaOmZTuueuBdNea+9Ll02akB+7bmr0a5p5Y4bNmxT2ZQNy/fnO6e+39aeP927I3ZtHNt/dMfkUuzH0xKRbR2bLxsWRYiXcmiIrhHyt9zj/vojT2komZsCBIM6dfm+bOuSnNnnl9emL7cz3DTkFE9nUcCFHRITnvvPNym0Y6rPZDOny45IOoMLLajzCu6QjQAciLHrkeenXu2N7aWbNERSfFnIvqkAWDHatH4tkmB5vHYXikWWl2HxVGnXcAYaBjEUO4+fCEIA4x9IO4II06YsIy4q4x0HRttYOGlMQwDk+F+PsiKgiSoSRH3pfVq1fnZ8e9A8FnIETFsCHbIg90uToEA/WJRy9sDp0tv0iUOVDqHHLC9qiHCEg9UohKPSgNUphGiYpG4KPxa+wquxnpGhM3L+JCVBYuRGPTdopV2fXAnLPja70st1GiIjwSRClqaBQdNs41bTZ7LFmTB2mSHuk3GU1PRW/DuUbGN1tJVFZu2p0nsY6buSB947s/ThdMnJlGTpmdTJKdcPVN6c5HX0w/PubX6V3v+0A6+qRz0glnj87Xpl1/W54z8rX/OSx7L04855JMdOavfDB96evfTu/59w+lJfc+lhau3Zw++ukDE4Jw67ptmQxMmn1zMtH1umX3ZKJz+siJPQQlyAoPiTBW+Ey4emGadO2t6aY7N+dnIBVT5tzaQ24MR503YXqed3LplTfkISRzUJCwIBO8RCb8/uL08/PqIauTLpgwIw/7XL9sfVqw+qEcX4Rv5tgsUUEWtj70eLrq8qvTrideSJYpXz3j+vT6qykTkjNOOydPgH35+d9lz4n5I4jCrTfdlq64bGaev7LwxiVp2eJV6cnHn81LjV03D2X18rvz0I/JsVYHnfirU3L4WB0URIU35ZaFS/PSaMNJJvLueHRXenTrk+mZp95a8rwvghLXB0JUkHrtwvwB7UoPljAOeucxmZbBYOB4NRkRRoZB1FExKRJpqNfL2ixR4VU4+eST93jRKALFU1A1YPSVFSOOzUqzRMXzdazgjVBEJ8t/OtaEWGWgM8YQO8+YM+rCmytEN8O56lkW3gTZ0NVIZ5DLap7pQWQS6QlPBVJgoUG9ersan9+NEhX3yIN8SYM0E9iqR/IqLf4bVpRvJDM60LwpyEwtBjmSfr4KUekHmG443QhRUdlUChO7kIAzzzwze0coI5VJTwUBIBoIMoPIIAoYL6KgN9DIUEujREVlU4l5bRAQE/40dM9XmVXsEArVeC7ygr3rmRjrpRzrVaTiaiVRYZDf2OvkuTR/xQN5dQ0iwctiGMYeKYz4NYvvyhNsb7hjQ5pz29154uzNd21JM29Znfc3mTpncV5SfPuDT+Rw7jeZldE2MdeKIcuIZyxclcw5WfHQrjyB9aiTzknTF6zoWZocBAEpsWR6zrL16bjTL8hzSgxDTbtuSR4OMowTYQ39jJ42J6/0uerGO9L4mTemCbMW5CGsCIMALduwI5MdK4AMBY2+7NpkybIVTPIaYZs9NktUGHeEwYen4951G/MwDo/Iw5t2pAvOuyhZsoxcbN/2VHrs4adyOKSEx8XQ0Omnnp3nlSAzQRbE9eB9W9P8uTfn4Z6NGx7O8154UDwrwln1Yzjp2adfTe7fcM+mvKfKi8/+tmcYKcLWexwIUYl248i7ondPGDAGkCEkjIMPYUwYQ/pCZ4A+aESaJSoMLL1Ej4Ro2zwooauc17lxrl5Pb8TV17EVRCXi5RFCrIi0IYcx/OJ/eBVcp98QyYsvvrjP+UDSRdcpJx/lV9WH8cwqLq4bcmlWBkJU4plILhtD5BmBQaSUqfoVdc11+eLdU9cMAyF09UohKvUiNQjhGiEqCl2F435DQvSiMHoExDFE5UFGMHMVBhngVuUq1lCi5xXh93ZslKh4tmEilRmj5kJFrnhJNOQQypUrEaGxz4PKLb08L1yGFES90mqiwjAz5DFR1n/DKeHdcN5wkHN+G0ZxzeRT55AZZMd/512PFT7iyhN0H34jnHkqEd612KvF7+onz1XZ+mxCfBAWG7Pd/sATbzz3zY3mquGRIGHMfxG/Y/W639KGpES+7NVirk1tuGb/t4KoIACxVwni4OMcQvHE9mf2+B8kw9HHjrbIi3B9EQnxIi0+cW9tOOd37YwVQ289vzZcvf+bJSp0QdUIVI1bX+2GQdUu9xWu9t5miUptfJ3430qiIr1VnKuEq6+80M86ia0gXBF/9flxrtFjM0TFs6ppgEH1f21a5B0GntmIFKLSCFodDtsIUYmkISqGb7B7pAPjZuhDKCT/jXPGhDqVQHg9Mcd655w0SlQiDdzNvCPGcLmmEavoiQijl+d6DAeZgCYvyIpwSE690g6iEsaZEQ9DHuf2dWzkntqwCM7enudaJkFvhusv7BvxvhHXG7/3vdS4v7j2ld99XW8VUQkS0Ncy47jW1xHJQAyC6NSGqZ6v/q4N99b//t8t9FaYN94d1N//ZolKvW2j2XCFqDSLYHfc3yxR6UQuClHpBMoDfMZAiQpPiZn8PBbGTGt3QuSxsK7dRNVRo0ZlooAsGIbhxeBmrUcGSlR4RuxAK52Ggnh8asdjjZdzWUuj8WlK0dg6IuX+eqWdRGVfRrhc39Pz0xcerSYq/Rn/oXS+EJV6W3fj4VrtUWk8Bd13RyEqnS2T8lLCN9/3YTiH58H4ofkftR4IE5tMWEMQzP8Q1kQwH54MQzT1yECICregsVrjmjw4MQxVuyumYSiTZ5En+TGRzmQsn+pQ1r7SWYjKvslCXwSiU+cKUentXSlEZV+teuDXC1HpjV0hKr0xaeeZQlRSynM7GHheBwbey/2soKmK1T9W/JgIZva4imqXQ8Mr9XpTxDdQosKLghDxkJj8a2Jt7dJDKwKEQ7S4/RwRKeObPvVKISqFqAwlb4q0FqJSb+tuPFwhKr0xK0SlNybtPFOIypuv2zb3w1CK5WMMPs9FVWpnY/Ny8Fw0QlLEN1CiYvKuybIm0CIghnU0lqr4X/XsyAMvS6NSiEohKoWoNNpq6gtf5qjUh1O3hypEpbMlVIhKzQzsgH9vs7AjDFJQT7gI7zgQohL3VeOp57e0VYlLPfcIU4hKISqFqNTbWhoLV4hKY3h1a+hCVDpbMoWodBbvAROVTiazEJVCVApRaU+LK0SlPbh2OtZCVDqLeCEqncW7EJWa/Uw6NQF1OD2nTKYtk2k7qbbKHJXeaBei0huTdp4pRKWd6PYR90CHfvqIqm2nikeleFSKR6U9zat4VNqDa6djLUSls4gXotJZvItHpXhUmt6ptnhUikelk2qreFR6o12ISm9M2nlmWBIVO812s9hMrvpOi25L69O7dqcJM25Iq21lb8fW8ukqDNY+9nK6av6yNHv2DemV53+ft6m3W+z+/PFeoi0Pbk+TJ03ptua0R3psb1C7meQeAbrwj80urYqMdx91YRI7niSvTrDqs5FtHzqdSPttDWTVZ6fTWc/zhh1RsQurl/EhAt34sdW+vVosa+7G9EnTo49tTxdNmZVuu//JtPjex8unyzC4feOuNGn2wnT55bPS7ifeePeO9+/sz5+djz2T7r17U7rk4jFd2660LYZD+9cj79b2X5suBMWGkbY7qL22v/7nZfJCSi+I7FYMbPhpl/LhIMOOqNj+3k6s9h3RC+imjxcLqjg2a/NiQf+7KX3Scvfd69KixYvTRWOnpNkLlqZZ85eUT5dhcM3C29OlU6en8eMnp9uXrkyLFy3b7z+3Lb4jzZ+3MF006uLcprqxbSEpNpXU/tevX991bb8vXQRHngNvjPd6Eu8Q6yvc/nQOJjYE9e432HRjXVNOOu3eTTccZNgRFR4LLi8bo3XrR/q6PY27du1Ku55+uuUfryjYvbs9cbcjvV0b56436lDUpXJ8E49dpe23Wu9V61ar4x7q8XW7HjdsNxxk2BGV4VAowzkP3KRWPhUpCBQECgIFgYJAPQgUolIPSiVMyxDgjvR+pCIFgVoETIL3jqoiBYGCQEGgikAhKlU0yu+2ImCm/Pnnn5/HuNv6oBL5kEPA6x5mzJgxbMbUh1wBlAQXBLoYgUJUurhwhlvSHnjggTwhb/Hixb3e/Dzc8lry0xgCPCnTpk3LRKUMDTaGXQldEBjuCBSiMtxLuAvy9/LLL6fNmzcnK7JeeumlFHtJmIjGy1Jk/0XAMt2dO3fm1ROxnNIKkkbfSr7/IlhyXhAY/ggUotJgGevtmWPx8MMPJ4r10UcfLZ9+MIAPUrJkyZK85wDCEgJD+0lYsjkcsJRX+di9e3dkcUgeX3jhhbR169a21214mZOClCxYsCD/DsDWrFmTl1babr60saJf9mcdq41oA1az7s9SiEoDpc/QWjdvPwHGd9myZdlLwFNQPr0xgI99Y/rb0fJPf/pTJjI2kxrqWEq/IS0fQ1zyNtTE8Iv028jK7qntrNPwUu5btmxJ5qfUCo+KujPU60U7MSxx99Y5ww0Ttkab1A6eeOKJ2may3/wvRKXOon711VfTzTffnDdqqvOWEmw/ROD555/PiuXee+/Nu48OFQgMw91yyy37tTIcKmVV0rn/IRDD5XbC3R+lEJU6Sl3v2E63KkuRgsC+ELBXjGGt7du37ytoV1z/wx/+kFauXJk9QV2RoJKIgkBBoBcChkLvu+++Xuf3hxOFqNRRyhQ5V3hZjVAHWCVIRsDwz4YNG4bEEJAhHy5zBKtIQaAg0J0ImNfn1Qv7oxSiUkepIyrmppQVKnWAVYJkBExK9Q6QobCFtUnAiEqRgkBBoHsRMDxr8cH+2KEoRKWOehlExbFIQaAeBLxd1WRQx26XQlS6vYRK+goCKb8fzhSE119/fb+DoxCVOoocQTGGX4hKHWCVIBkBk68tvR0KRMUSSCtwihQECgLdiwCPiqGfQlS6t4wGNWXmpnibcJmjMqjFMKQebpjQnipDgdxadu8ttkUKAgWB7kXAXipW/QzFrQ+aRbV4VJpFsNxfECgIFAQKAgWBgkDbENgviYrJSDa1mjt3brrhhhv2+8+8efPStddemyZMmJCP8+fP3+8x6WS9gPdll12WJ8q1oqUbdvKW6quvvjop207mZX9+1qWXXprmzJlTMK9Dp6rzU6dOTVdeeWXBqw68Gm1X2v1wesnnfklU7Ho5e/bsPDnJkE757Mo7hF5xxRX5nTwFj87XiRUrViRbx/e1S2uj5MUwjh0tbT1eyrIzZWn+wNixY/PrBwrm9WF+/fXX53pa8KoPr0ZxMp+FXhkOst8SlRtvvHE4lF/L8hA77w6FyZ8ty3QXReR9HjZzagVRsS+K1QFlOX1nC1jnZygsR+8sKv0/bdWqVWnjxo39ByhXmkLAHDnLmYeD7LdEheuxyFsI8DJ5OZz9P4p0HgHvvLHtfquIij1c9vcXmXWyFJXbrFmz8tvBO/ncofwse1Pdf//9QzkLXZ326LB0dSLrTFwhKnUCNdyDFaIyuCU81IlK7eqmnTt39rxJ2rW+CJidNvs6X1sShrLirdQvvfRSXavvnnnmmX5fhlkbfyv+t5OoiJvHs7+NvmpXIwrnnVP1iHC1ZYfg1sZZT1yNhukUUan1LOqMqXtEPvuqg5bsV9/2Xps3K2927NixB057W43z+9//PtkCf29hap/R7P9CVJpFcJDvZ5SLR2XPQihEZU88Ov1vqBMVZIIXB5GwhJIRWrduXX7JoV5z1fAxusKZE2VTPPchNrVijo3N6MzdMUxA0W/dunWPYOqt6/Y5MkGeVwqp8Xxxd0raSVSQLnmsJRSRN9jCJ94txQjzjtYjXg3CoFXFc7yxVzyGZgwfmO9ggnYr3+DbKaKCmNgnCCnzJnf1yAtm4epVF1Vc7VGibl5++eUZQ8OxSEutIHOBsfoM/yDT1bCG0tVRaTDZOuaibd68uRqsLb8LUWkLrJ2LtNVEhWLub8iEEqk2hL3lUrjXXnttb0H2uOaZ/fWy9ghYx59uICp6HY8//nifvQ6GAD599X72lj35akTE756qYW3k/oGGHepEheKmfB3Nj5k2bVo2boycnme13BgNKxIYPsTC0eZ4tcLwMiTCmHhJySMjyEuI9rJs2bJsNKxa8zzExysBEKVOify1cugnvCKMnxV5p59+es9KRc+pNZ7y7O3XS5YsyTjBrCra1nXXXZcmTZqUZs6c2bMRIexriYp3VMGZXnNNOfhMnz69pe+a6RRRoTfkyfwh5MtqI89GetXZalv330okJESdDCyqWPqtfIL8wKq/jdiQZfEh5ciRD/LTiX2LClGpLbUh9r+VREVcKgRGXVXGAQnWbgUGhUpha/wag4l31QYiPCV/zTXX5POYuJ4odl8V92D9FA8lRuHrKfjfjFtRPgZzjoo8SANj1NeEXvlmkOQThhSO3hElUNvLo5D0cuDkLcbeeg0byiUwUlbick4Z6WW5x3OUjbLopAxlosIbYkUCgSEjyrgyqI6bNm3aA0r17MQTT0wTJ07Mxk/7qJIPgbUR2weMHz8+HXbYYemiiy7KBARxUe5EWSl7y7BHjx6dfvWrX+Vnrl69OhuRoUxUDDvwdmjfZ511VjaEPEyMK3yjjVhthHjAiuFEWKw+stwdWUT8ifCIHM+T8Oq8+q99CKO+h/6y0EB9pHvoGPd4rri1k1ZJJ4gKXUHvEoTFb4Tuqquuypgh1VVBTE466aSMFa+KOiTftQI7egJ+JsLTI+L3qQqigpyMGTMmhx8xYkTWWX3FWb2vFb8LUWkFioMYR6uIisZtfTvlTBlTrrXCoGr4iAqFillr+JRIKIa4R2Wn2BltSorRpoyr4h7n7degwYlTg6Hsa3tZ1fv29XswiYoxZL09Rgimtb1BaacA9BYpXD0ShkvvmfKtHTbgttZzdITPlClTMu6UCmwJJaxcLr744lyGFDOFzUAwsIWo7KvGvHUdVgwlo6aHPnLkyDy0ilgaYlWuVdEDVT7umTx5ci6bMLwRTvkoX2G0GfFQ7tpOtBtHpIVRRk4YdW3A8zx7KBMVOCAT8g5PQz9w006qK4sQb22fTuAB4HmiQ5AAYRlUAl86B2lXv11jQC+44IL8H8mJOu85dJm4hInjUCQqdIu80RHqExIn73SJY23d9N8QDb3Og+RTXZkET+RYXOeee24mHfQwfU2/KIMqWUFUkKJRo0blckES6dpqGUadb/WxEJVWI9rh+FpFVCjD6GGowNx/1QlYjKLeI4NJaarQlACjqPGHwq1mnxIRtmp8wwsQ4SgmipsR1kA0GM9mKAYqg0lUkDwGKIRiiF6Qc0HO4I2gURIUCKPkv15lVRhLih2GFAXlQCHXuls1ZD0cykVvleJSnjZL6vT7NIayRwX2SLZyUw8ZVmWAQDOa8lYV1xYuXJiNod8MQ1W5C6tsGFXtyTAOw8lro4yQ/xBEhTFV9xkKRgS5V+bqQKdEHdV2az2gA31+EDV1XjtXP2GgboZHm+i+AgAAIABJREFUSdw6QHQAko2I8DDCgadA3Q9BVE455ZRsqBlh7U250EfaCYMe+iiICpLo+f7TY0ORqMi/fEXdRFR0UOhfeNV2LnlUeLXpJPlFpGEfolyQQnVS/RYvkozkqcO1E3cRH/rKs4477rhcPuF9jDjbdSxEpV3IdijeVhAVikFvR0VXWSlFFZzh5AqkLFUUPXZK029KlrubYhEuFINKzjAjKMcee2yPweRZ0DOK+MAjXop53Lhx6fzzz88k5YgjjsiNr6rAG4VysIiKvDNa8JNPGDBeFIQGrueBqMEadhSJIbHzzjsv44iw1BI0PSiKBoGhZJVLGEsGNXCkiPTGxaXXQ4EjP4WoNFZ7gkjD3RABlzm8GUoGTlmEUObqP4yVsTZh/gOCGORcu1DGzik/vVFGQb33CXc9o4AYqTdc/AzImWeemT0MDHYzHsZIb71HaW4VUdHp4TWEB2yOOeaYTDC0C3U0vILShpjRP3DmUYK7MDxWVfKHqCAeSI56r715hk4Uz01VgqgoI2WogwVz90THrBp+oL87MfQTxAF5QziQPuSBbqWDq3VTPaZzhKUX6BvXYapeV0UZ6TDSJ/BUBrUCc/VTHKFfdIx4czohhah0AuU2PqNZosIAUrZ6JYyghm14QU/Sb72QUN4qKmVseIhS0BAoH+eCqFAU4mKwTzvttGyUKWaKn6LwvAiL0QurJ6WBUF6eqeE0I4NBVOQBMZFPyoGipRwN61Bi/ocS5Q0J74meNoMFFz12x6ooGz0mpEYcp556asbK/bAnDBuDSmFRJJQ2HCkc3qriUakiuvffygjOjBljgESr97ESKIwBwxmKG6lGJGIelqN6EPXYfwZSXdB7Fbc6UZUIqx5pV9qd+RwMQW2dqN7Xjt+tJCrqXgwN6MDwApgDp65qH+puVeDAqNI/9ANCwksV+AjLM8XzSu8gMkHY+8JKO2CceRq1JYadPuM5GGpEBQbyK590nDZPp6p/jvJJ5E+dU8/UZ3oC3rBGUhDBKkGEn/qqrMRFf9WSGf+DlNBZyAp91SkpRKVTSLfpOc0QFQpJr0TDp3gZP14OFZvxJKEgMGrKg3KhTClzH8awOvSD9fMsOIpD+hjOiKcKA8VFKWtMZq/rOVHOlEkzMhhERZ4ZM5jGHAR5QOick3/YEjjr5cCeseOp0pOmeKtGCeYMFiVEOcCR25Wip4ARRsL9qswQPZhbQUURF49KhqehL0ZV+TkqE4aSKFuTYZUBUU7IhnA8kVzwJtG6jnQ7H16AcLFXXfN69OLmzVQv1BHKWHtAZhgkEyGVtXJlJNSHToi0tMqjUk2v9q7eEm2eLqkO/Xgug0qnwFBnxxEGPEwh2hqdg3wwrPBDOqS51iPJKGs7VdFWeMCGGlGRB3VOHmEgvwTRoE9gRdQ9mNEP6qn6DFd1DWb0d+gO4ekmnVP1LMiKuo5ci0tY8dEzdAodA3/Ywr8TUohKJ1Bu4zOaISrVZDFuoUQQBay6KhoGJUqJ6Gkytho6JUGphhGOe1R+iijYvbhDcUcYDQfr1zi4MfU4kZVmFfJgEJXIEyUAO25swoCFR8p/yhiGejwMF49SYE0BaJAhrjNoITCNsHHOMVzCsERsiPKSFgoFvp0UPTuKUV6bFXhQwPLTaWFMEUmCbPAMxpAOTCnxEAocmeANUOYh6rJ2wkhXRX5iGIKhiXqh1y88zw0vGrIET20uPAfVeNrxW1raQVS0CcSdrmAU4VktVwRCu1CftREeSsJQmmjO4xtYVeuW+OD761//uqd8AhftQdlUxXN0jGrPV8M0+huBkPZOCdy0CzjQC/RreEHoG20/BDaInjKFYa24n+6p1lG/4UNnw1/c6j4do04ShMlwNd1d6xmrfUaz/wtRaRbBQb6/FURFpUYqKEQVFFOOyhjZU2nNrdBTj4mAFCqCo9EzqlWDSKHo/TNYwjCY3OhhiDUADVsvVKPTizznnHNy46slNJGGeo+DRVQ0eN4P5EIaGDk9kSqJ0+iRPIoajq4zWAxaDJHBkbKBL4VNKG+Koi93q/jhTymHMaPAKGSGs1ou9WLYTLjhQlRgWC07ZVA1kLUYaUeUd9VIuCfKpDZ8XIs41XtlVX1m7T2d+C897SAq8hvY8OLWdkjkPdq+61WCT4fwDuwNG14vbbAq4vTcqshf1eNVvTbQ350mKtJZxUKeqv9r8wED3qtazIVzby1G1ftd96Gna/GNcolyq97Xyt+FqLQSzUGIq1miQiEYn2TUVEaM2zhyrVC2epXGNhlWpIPB5U3x4VJkhEMoAj0cDJy4lyHVC9CgpBvp0Wvl4mXgIy1IjfT0p+DjGf0dB4OoUKrc/nqBfusRn3HGGT3ELNIKY+mjMHhTuKCN9yKKhn70qF334bIOZU3hKhuTmWtFTxXOtUoE1ieffPIevdbae9vxf7gQlXZgMxTiVEfbQVSGQt4HmsbBICoDTetQvK8QlaFYapU0M2jGIAcqCESVZSMHteO8tXFTZCHV33HOkYEVT3/XMXhp1wuqutDdh/RwVVbPV+Pe12/x8gph+50SuFXH2z1X3oJo9JWOKjbV38L6X9tDQgTDI1WNTxnWho04eG36ula9v9W/C1FpNaKdjU/dK0SlMcwLUWkMr0ZDF6LSKGJdFr5ZotJl2WlJcgaDqLQk4cMkkm4kKvWQtXrCDJMi2ms2ClHZKzx9XmwFUantrPT1oMGso7zp1dVChoIM3bd72AcOhaj0VRuG0LlCVHoXViEqvTHp5JluJCq8Trb+rl3qakjNUKe5PLVDZ53AzCRFaTIp0Yo3ngwTys05GixplqgwZibem5RvOJfwBjpXO/fNNZ5IE5Bh4dnmYVUndkZ7rt7Lg2m4k/fVpGNDroY6hTXsar5XJ6UVRIUH2jw9K3Cqnlh5ssmj/XQ6QQpqcZMW+bMc2mR+qz8N2Ss3vzvhuS5EpbZUhth/lbiZoZ8hlt26khuKrRMNqK4E7WeBupGoMGz2oPnbv/3bPME7ioRx/Lu/+7tko8F6erRxXyuOesexHJkR+vCHP5wNrAnWDPBgSbNExZCt9x/98Ic/7Jm3xqhZhg/vWrHE9Tvf+U5ePeIaomKOWoj4jj766J7rzpvcz0ga4vUcE/2turL6xdwuK1E6Ka0gKvL5k5/8JP3N3/xNzzJ4eTCX7a//+q/zBoCdrqOejzT/4Ac/yBP7kSmEGmlEYJRdJ8hTISqdrM1teFa7iIoeqCVrJm/q7ViBUm8jMb9Er6A6ubYNWe83ym4iKnrpJg3D0b4ZsImVD/1m4M0L3Kp6245DSbqRqMAPKXj/+9+fl8H7rz6bCP6Nb3wj92Sds2Te5G4TnNUjilk7sLJNL9/EZcbRRHLGlOHVe9fbjD1RKG+Gy8ou5a0dWLFlsjQjHHOZPD+8ODwC0hFLXMWBvMQSXXVIXOKwxNeLC03AJuI3Id4qu9jnJV8Y4Jd0NTtHBUbyE3WXPoEZchYrUODgPw/Mz372s9xGGD//w/jJmw6Hiem8TiHCmAMm/kMOOSSTFPfAzbN8xOWIAPAA8J7F74hfWiytVdbNSCuIiueL533ve1/e0M5/6VMP/uu//itPvHdOnaOTnYeDuqWzqs7CVF7Va4sS1FcrBxE3dRReMEfmLG5A7ixkiGEcdblaRz3PPZ/5zGfShRdemDGEI/wQGDoNxuqp+uh/LCPXPjxXOoRpRgpRaQa9Lri3XURFI7fdtZ6mSv3lL385K8J6sqyx/fjHP84NZm/hNQ4NrdXSTUSF0rdKSkOnMGzipQdYncDcX/6jJwPPvYmyoqy6RbqVqBgaYPD+53/+JxMCChuB9KoHLnf1EQGwVN724MIqO5tpIQL2MrnkkkvykIOyNMTgv40PDR8ZWnLu9NNPzwbCdvneguyc7fCVp7LXI60VXpSvf/3rPavkwosgHSSWrjP+0oh0fe9738vkBYliuBiIz3/+802v8moFUYEt3cHTQSzVDxLFmPGG/PSnP82GDRFRBgwaI3zwwQfntoKIwFIcX/nKVzJJy5FVvvTs4aDMiOd6D9DPf/7zXAYHHnhgHjbR7r7//e9nIwxDccon3Az78ej0tUdR5VF7/dkKoiI94rHZ2v/+7/9mr5FOjbSqN4YEDaXpvNgCAXFQP1y3epDnhR6wIhOZRXrhKQzMERV10pDZL3/5y7zcW/302g3DdLBWR5WbjmaIdCHJH/rQh9LHP/7xvN2+awjO5z73uZxOhF7axKfdGI7TpuiCr371qxnjiG8gx0JUBoJaF93TLqIii5SHCh2/KUENh9uVhyWMIwUfxknvxN4pekiYvbBBRhyFw7Sxcg1Ho3J/K6WbiIp8WXIMO3mmiP7+7/8+KxGGDwnUY4kenl65Ru6c64cffngeBrB6J3rs4qGgGUDY6RVRzsJ0g0RdoOCaFQoKwWhFHUE2YIVEU6Z+U+a/+MUvsuHktYhhBMZCr1TZ6bHrveqt6iEyjAiOXqIePM8Jw4iAKLcTTjghx2uTMuRFmSMh4mOgHRnUqtQSFdfE69lICS8PQ8Cg8lYQS899tFNbyutRI07qfzOi3Jr1qHi+9m3Ihk7gDQlPouEZBIFhVG+VsTLQkxfmm9/8ZiYe8IMBr5NwMK8V+oVR5x0I8awvfvGLGWNHZYb0vPe9780dBOmClzbE2CsfODKyAxVxhDdsoHHAXX6RhqOOOipvcqfc6QNDLwizegIr5BjBQqQRPOQLmVUneTa++93vZg+WDhGyIpzhOK81QRjpFc9BJtQb5YHAOyIziF9t+7WPjXT94z/+YyZFsP/Sl77Uo3ekg+eH3lLG//mf/5nJn/e4+V8bXyM4FaLSCFpdGLadREXD/fa3v53ZuR6Nnhw2HpMSMW+KGvtWSYXXK2FAeWM0Xo0JS9ejQkrE8YUvfCE3nMMOOyw3unCFtwrebiMqDKSeCGXBiP33f/93VhYUByWK1FFGlC0ly0ieffbZWcFQ9O6jxCkPDZbC8qEkhKV8lJM4ukG6laiojzBWFz/4wQ9mJc0IUvyUKS8JQhE9f4Ta0APirZePBCDf3NyHHnpoLiO9UWXo4zcyYQhGXWcAgngecMAB+V7eLwrfsSpIkp6ntIWIS5yeLQ3Ec6PnL8162YwYw0X0bM3HaUZaRVQQZ3XU3CC9fcMYCJrfhrB0gpAVJMLbeNVxhJ2R9ZI85I8xJfQG8lQr4VGpEhW66KCDDspBET14Ibr/7//9v3zOEJT5Mp4hDTBnzOmygUoriIpn84Rox8j5f/zHf2Tdqh4gY9q8a/Smukl0FtVR5+lodU79oqeRF6QDxsgtPcKzx4OFoPEC0jf+I+0wE5e6qVMZxEI50mEh0qIt0OvuQS7l3/O1DWVsKIq3BXFS7uplLTmP+Oo5FqJSD0pdHKbdRIXipkA0AEpdIzBmj5xQQti7HibRc3Jdz8I1SlUjI9yPDIJJggiNhsHIhoLNgVr01Y1E5SMf+UjGEHHT62ZMYKd3/aMf/Sj3OLim9Z4JpUkJ6/1/6lOfyj0p5ykCyoFyZai4fBlGPfVukW4kKuqEHjrFTGIzQgqUlwKBpKAZTHjzuHBt6wkaWglDqfz0OhERil6dNoShfseEQ711ZXr88cfnnrryFobiZjRqe94MAte864xqVaFra+4Nb8S3vvWtHC/vgvbDEPj96U9/Ovd2xRPeuYHWh1YRFc+H6wc+8IFsqPynD/TKDVNZyeK3jo08yoe0I2wMIy8KMk+nwLOvOq6uMZAMfAhC89nPfjb/1avXzhjgd7/73fmc5/B+MfL0G0+EdoUcDFRaQVTURfVM/SI6e3QAz4U8Iq0IF68fD63ODNInv+Elok/Uc/UgXkligq56rc4iOUivuglzRI1XBVHT2YEXMuN/CA9JdELFr+0g9XSQKQG8PMqHrkL+2ArYsgs8WvRUNb6It5FjISqNoNWFYdtJVChhbuWqaMyUtQob7kakJJSjo97h1772tfTRj340Kwn3axAaB1ckI61RYvvGV1st3UZUDB8YK0fkQkzMZNAoWBg7UkZcvSEUwZFHHpl7VnqleiaUgt65Hg/lS/EzpAxlt0g3EhX1joJGGog5IERdUV/1SBEV4RhRvXL/9VyRFQTbPXqRyhOhdF1ehdWDZVzFw8vBhe8+ZSwMQkGB69VGW8kJePOLQWLsGIXoybpkiNU9IYgKA89AVZfwqj/aEqPerLSSqEg/PANvbR8+iAKSjYzADAlhoOHNANMz7mVYETLGlCekKtKpTA3bIHRwdU55wIhxZHS1KXExsEiRcuFRkSbElddFOSEEA5VWEBV1UT2KOqB9E1487R7BRWL9V5eQEcPAkSf3wld9Ux94BoV3H30NA/UmdDgcwstCH/vQJTHcFljooIpDO1HHxU94wrUL/133fP99iPh4gXi7tJVmpBCVZtDrgnvbRVQ0eEM73LAaQwiS4jzmrNeit8LAIjUUpcahUWHrPDGuqcCUhV4ABeEeLnHuQ0yf67GV0m1EhduV29l8lBD4ffKTn8yNWm8Edtyxxud5qygRRMU1CsmYMsVOkfMA6JnDl4Iw7MAbE27yeMZgHSkuBkQdalYoKIq1FXNUmk1LPffrmetJMqqMJ8MQBqee+yOMNqGtMPJBSBhi3gYegXaKcmvFHJVIY9VD5BzvkPaPKDBmylZ+kURYIXVBbBAvhtt5BrMq0um8e7V5z3HO/Z7hvN8+rkdYces0RHziN/zUjLSCqDTz/EbuRUTUUcNv9AwCguB0sxSi0s2lU0fa2kVUNHKKliu62oj1/Aw1MKJYvSEKxpN3RI+IgmAwMXVL49xvhjplZI4FY8zwULrCGfoJpVRHdusK0k1ERb7NmNfL06OJ3rQ0IiQwCWUhbEyS0zB9jPXq6emlKA+9GP/1GBE+2BlD1ksNb0FdILUx0P5MVJB6PXl1XDkxjgMR8WhjDHkIg4v46Ay007C0mqhE+ofzcSgRFXWSF0Ydpb9jWLGby6cQlW4unTrS1i6iUu0FVX9LUu3/OEfBxW/H2v/OGb6oSoSpnmv2dzcRFfkLt2f0+CJ/1WtVHAKjOBdH98VvcVbLoTbueMZgHPdnotJOvKPsq/WgHc/znFZ6VNqRxm6LcygRlW7Drp70FKJSD0pdHKZdRKWLs7zPpHUTUdlnYodhgOFGVHjBqsOffRVZkNG+rjV6brB7uIWoNFpib2zUZhi206Ks9uWRjo5PK9K2r2e14hl9xVGISl+oDKFzhaj0LqxCVHpj0skzw4moqEsme3KXIyvmFhmuqxXzHEwINcRnDoBJmoY+ByKGWg2XDpa0m6iI34TQKvkz7FkVYawcMaxsiNj8LucGIu6rDl8PJI593TMYHhXDf+qmifXm/Kh/VlnFysFIs+uxOtBqSxNczaUaiJgSYCi704SlEJWBlFYX3VOISu/CKESlNyadPDNciIrJlkiHyeGEYbWKpHYlnGsM6tvf/vY8V8h8IpOf7QNCsfcn5nvFnKVqGOdMrjYfZTCEYW/n0I+VUyZwwtNkWfPbqqvd5FkakDXLh036NB/LUmUT8/cm1eHQajjPrH1G9XqzvweDqJjzZrI1MT/QSiqLH2LPnsgTnK06tEwZiTG/zbLivXmAYgJzxFE9WvmDiNeSy2qYVv8uRKXViHY4vnYQFQqaQjAh1oTA/hr/QLNKkZv8GbPuBxpPf/e1i6hQdia3WvpnMlq1R9hfWjp5Xg9e2qo9ecZQL6qZzawazcNwISp6nUhJdUKslVY22KsVy8Q/9rGP9SzNtJMt46D98MAgHYwvbPy24s3Sc3WKwreE00Rq9YqYkGslVyeNQeSpnURFvqwcNAGcWH2D0Nn7o1Zg80//9E+ZBMKBobVXTezNVBue4Q2cXXNPTDo2NBevGqi9rxX/O01UTKy2LFueDe1EmzdsaDUholEVe6/Yep8og0984hN5yTI9T6e5z0R9ewepu8LzHoobubGyUB4Je+B6J1cZFqKSoR+6X+0gKiqiFT16hRQKxdUKid0OVXCbQLVLCbeDqHCt2muBy9pqDCt2uKa7SeDJAFrCGq5uPX17rHTSVTtciIr9O/RQq2JzsP6Iyr/927/lXr9Nu+whxCAj41bJ2WGYIP9Wb9nd2d446pXl57wHnmc5ujpmqa69iAbDq9JOoiKPtjIIYQhtTAajWmFQbdIWq6dgYy8m5+2vEt4E3h/6yo6pDKjwDDhiYiuF2EANxtpGqzte0t1pokKHeveOzlJVP9uIzT40tboVwbPvFfzDu4Ls8I7Y5I3nD64ICQ9WbDaHyPBmqbO2nLDtAPHuJF6/TkkhKp1Cuk3PaQdRkVQVVk+ntsJrFAgHA+ia3iajiNBg8eEl0YBUfq5dDcLR5k4atLD//u//nnddrN7TKojaQVQ0aBtDRW+OgYleoSWk9rqI3hsj47peDgxgFPs2+C99hIsf2RGP33o04uIFiR6ScO6FkyOhaD0P7lUl5RqXundxUDSMgLTYkTLuYwTF1U7iMhyICoztVcPQVaU/oqJMbXluqEj7YHy9NoFXQBl7bQSCa7M45cawKhdlYU8LSh+xMQzifj1c717ppDGIfLaLqGgfPFSGz0LoC1sW9EVUYPMP//APee6FYQ34wl88vAn2YFJO5gVZsi1e8y/MZ4lN44RThnQVQ2zvJ2XSauk0UeE5RYyros7If3RSqtcQFR0W+gfpgKXhGzri0EMPzWTOECdiwgNoF1xh3WOzPV4WdRqGxPCRT63+qT6zlb8LUWklmoMQV7uICoXA2NUaNEyeC1GPBqvGtjF0bmsvpHIf0WA0CBXdxlUahd4RpYTkeNeKc+5Bilop7SAqSIKeh16JXnEM+yAG8kcRUKYIGSNke3XbTts+mnGCJbe+IS8NH2GQbxPgbOBG2fLY6DHqcXoOgse4ics1igFR8nz/jTPbcbLaQ1Q+vD2uOSo/PUsKJYYcKCFGmCJqhwwHogIvGCvXqvRHVBBCm/rFREbG0MsneUuIclYmMRFXz1a5worXRj0iyCrjrQ7b0rx2N9YcqM1f7SIqDKleuTYRIq+w6YuoMIpeJIiUG7qhY97xjndk/WHPIPNXDFsYriDKi/dEm+GNMumT8Y2dUmFNV9k/pNXSaaKiLSMqsdqMXuAJQTT8pjuqggyrbyHe5q4siDppo8kYfjOXh96moxC+OK/8fAis6b1OSSEqnUK6Tc/pJFHhGeDWplQYSENDGoxhHL0chto5QvlKm3FOnhSNRw+REmEgNbK4x9hzK6UdREX6NBYT+ihPR0ZF2s1bsFuo1wTAxwx7YrM7Dd3MfC5pblmGR0/QvBE9PXh4rwwDSJFo/Lwp3NzIC6Wu90TMmaCU4ci1bUtwz6tOyBTGB2GxKzAyxDVO6ehxhkH0YkSEqh0yHIgKXOCPLITAmdJWzohJVRhVHhReEW0CIfeySaScKA9EJVzn2k9MbkTqGV3Ddjb/Qy7VLeXXyblFkZ92ERW9d+3GJwSm2ggCXyvIHu+go3sNl73rXe/KHkdhERy7Xce8HuRb20NEeAkQG+UCe2LyqfcpVb2Vtc8c6P9OExVeOvWJBxaGOiXqEyyRDB6mEB46nSHeLHUTLobJdKAIbxMiQ18RxA5B19GkL5A+2CLd6iUxv4r3sFNSiEqnkG7Tc9pJVFTsYNCSj63r8dsSnuFDOLhn462kGgiDTMLA6vEYG9agKP0gKjwqpHpPPtGCr3YQlar3QUOOl50x+IyLBhzDBdFz0ZB5LygNL+xiwDV2nhbExjnDPu6lbHhMGC2NEuGjvJVBEBXQmHSpNwR/Xh5KyL0hysgwFeHt4sVCFI3bG8qLHr9zSE47ZLgQFd4xxjF2/NX7hy+jpI5VxVCf8tajp+AZAeFD1H8vjgtPnPvNsUBkGGHeReWh7AmDotc6GNIuoiIviDOiHqLnj5wb4qoOM0sDI8nAItqwRejpnvAg8pYwmDHZma6xPNfQKSLIW2voJzwqMOUJbod0mqioWzo3vKvqD++RTpA6hXAEJvJKV6iP8FE3YahuV8V9oeuVA+9MdGp4XOjp8ETRO3RYDH1X42nX70JU2oVsh+JtF1HBujXqqPCMHy+AYQtG1DiwxqFn//73vz/nlkfFSgVCqTCMGL4eEUVtIptGooK/733v67kHu2+ltIOo8IrwnBDEAA4wgQVlqVEjYXrcvCEUAUUCE/nnYUI4DJtRvsiNcWLKBZFjsMxPMCSgtwRHikXvHRkSBt7SYb6D8mE09dApqhDhqsSGUdDzony4esNdiwBJL4VXJWERTzPH4UJUYKAXzkjy/g1EGFzGxBg/72I9ojzUNQZmMKSdRIWRQ8rUEYK4MULaSy3GdIYP4sEzEiQvMOEp4fUKUZd5V2I4hI7ixSTuNQSqzbRDOk1U5EEHh/7QWRmo0GHKA4GpR5QRIqTzFYSxnvuaDVOISrMIDvL97SAqKiNCoYfPA6B3oqdPgXJFc93qkTPOFINwlIawXN/CMYgmXzHMDDCF4ZphI8oi7hE342xoqFXSDqKCPDAeyAOSoIcCJ3joxVnBofF6tl44tzTSgqhE70eeDbdw0zJClCyiwwNjHF7cyA1MxaHHyGNlLhDMDfsgSZ6NdLiPG5thIXpEyg1RCS+L9DCURBkZXvAMipWiCUOcA7ToazgRFSSQkqydq1UvVMqGF0xbqTW0/cWh/YSLvb8w7TzfTqIi3eo6L0f04BvNC2wMRfACIDL1CI9ieBPrCd9omMEgKsqJHmmmrujYmJOiztUj9LTy67QUotJpxFv8vHYQFQaMUqVIVGC9oKqi1junIISjyBliYR0Zb94CRlrvnzeBYWXQGU9j++6v3uNZ0QtqBTztICryKs16L/Copld+nA/CAAM9RITGslT5Fl4YeQ0SIa/igol73RfYOPpPHCmk6jOVSy25k0bl5BmRllo8Y/5DnPec2vkWcW2gx+FEVAKD/vCM63s7KpdGpJlnNfKc/sJ6fjs3fPNcbalRXCK92o+httoJo3FltIQjAAAgAElEQVS9r2O0pb6uteLcYBCVSHcz9UUZNHL/QMss0jrQYyEqA0WuS+5rB1FpNmuMNI+LoSNeBN6URhpDs89vB1FpNE3ya2KfoZtmXLONPrcbwreaqJgc3G5D0w24dVMazCVpNYHtpvy1Oi2GZXkni7QHATalnR6x9qS671jf1vfp4X22G4nKYCPeDURlsDEYzOe3mqgY8uI94r3Tmy6f9mLA22HiryGFgvm+sebpNH/PkHbBa994Ndp+YcqDFpN5B1O3teLZhai0AsVhEEchKoNbiK0kKoYYzeUxjs69bgVC+bQPA5Mr4WvemEnEBfN9Y201kQmp5rDBKzAs9XTf2NWDEXxNGlYfh4MUotKiUtSTiklqmGxfk7VMLjWr3qofk0ibGd4QV72TuerJYrcQFcMVsUuk8XQTY2vFeUNjPlybsBio8Door8GWVhIVLl8Kyuom853KpzMYWGmjHAve+8bb5HeTdS1jL3jtG69GMVIPg/wNtm5rxfMLUWkBihodw8DoWUtvjoWt460mqQoyYMmtOShWp9gvxMqgvYkJt9x4tSIu+0+0al1+NxAV+NnHRJ4QOXN2LMP2nhjpCzHx1QohOFsubF6LvR/2Rty4mvuasyEuPbp2LcGMNO/r2EqiYhIdAjdYk/j2lddyvSBQEGg/AjrL9ONwkEJUmixFlcFW77wpVqOYxKhnZeMxu6EyhFWxHbWxbILI2PadR8DeK1aTEMTEShMrfxjh8LzwJHie8UpiCad9Dga6ZDFH8uZXNxAVG95ZFoxQcF3qbSEsNmuT16rYkwU5ITwidvpF3OANy5iZDxv7rSgPZICI34qgwM1yZUvDebsGS1pNVIxNR30arDyV5xYECgKDh0BZ9TN42LfkyYyy/TdaIdxrsWFbdSmsXrotwU2yq4oN3OzLwbjaM8XGZ1YK2OyN4RUHg2m8234hthi3n4ThIhtg2R+EN0G8SIuNyfoaHqk+s57fg01UEAekDTEh4UVCJuyHUtszgC2PisZoLgacuJJ5ZGweh3yIw74pPu95z3vyHhLCGxe3a6QVVp5LbLTX15bk+WIHvgpR6QDIXfaI6HBEshDL8ArSA32t+uN1rG57EPc6Ch/ktOpNoyu07+rzEPrQTdqJjlZVf0W84ql6InUCajtfEbYcuwuBQlS6qzwaTk0riQqPB0NaVSoaNlIR7yypJhBRYSAZTyTDLrQ8JciI7eGRD5uMISvC2CWVYjrqqKPyDG4bxNkhNeZx2FYfKWpWBpuomCDm3S2x9Xrkh1fJHjO1SpQH5KCDDsr7rnjnhp1r4c2bBV9LH+FmZYEVMN5jAmebwtk8zn413/rWt3o2doMprKvlGGnoxLEQlU6g3F3PQEp0QNRLBABpVm+RbEORVUKCZMTQMh2gcxI6IHKFcCD6lvzySNpkDMGnW/yPOXTC0xmeTTzHxMu+llbzEmubIdqjtlOk+xEoRKX7y2ivKWwlUfHaeV6OED0QysL21aTai/HfS9Psckp4VT7xiU/kjaL89wZgM+Fj3oodapEgxOdTn/pUHtqghEysCqXinUGxi2qOdIBfg01UbEeNqCAaIeaqmMsTGFZJhGEic3xCvAQsPFu8JV4+aEdbyh9miIx4YOwaYgBHRoF4D4cX4lWfEXF34liISidQ7r5nIAzqIJ3hdQE6KIgFMlD1ZCAdvLfmwNlFmefQu69qBZlBzO1mbV8XXlreR4Q9hjrd479nqO8mXfNK6gy4P7yZwiFD1S33pc0k9iLdj0AhKt1fRntNYSuJCsVh+IZo9DwpeuZ6KBRFuHIjQd5Eagdawjh/+tOf7umxmIeBuASR8cI1cZvDYnKubecpFR+9IIrlYx/7WEt6OINNVChoZMORUNxIBYVrt1p5rrqzzVGBM+GFMfTjTceE4vdyNcM5yoRiPfjgg3M4nhhkkdLXaw2vF5x5twZLClEZLOQH57nab5Bk7Zh3Qz03f43XD4EJgi6FCDzirVPC4yp8lUBEPeeZUZfM1xKHLfN5RAxrVj00toFH1Imw2hlPozirzzU/DjEyTITEiDM6YYODXHlqvQgUolIvUl0arpVERaM1hEBRaNTxYkE9dD37aq8o3nHDGxDv6zGhNoY1eEkOPfTQnpU8lInXkFMOlJPnmH+h58Voe7Y3M3PPNiuDTVT04gzhyDOhsOXdyh+Eo+pu5io3h8e7gsw14oGiiKs48JrAmCgXK4f0QHlp3If4efss5WvM3XPqfclYjrTFX4WotBjQLo9OnUMiEGWkw/b7PCGGfrzTh2dVmwzhUbFakIdEB6avPTIQD/eLy0vwkBphkXIemNBF9JD3/vDYIvl+i9fcLZ6VEN5I58wFczSMRPdoawiNZfBFuheBQlS6t2zqSlkriQoDS+FwpZrIxigymBp5tQcjYYgID4sGTkFVFZGwMRk0PAfIDwXFMBNxIicUjjAMca2noS4A+gg02ERFkqxUCfIAQ1jKsyMsQvTu4hqlWx17d809FGn0WN0nfISDHwWNpBDem1gxFM/o9LEQlU4jPvjPU0/pAx4LE+uRC94PhANpjnYvpXSDOm2+FtKBqFfnjkRu6AueF/NYbJnA68iDK74Y0qGHeG3pDyTG0JB7DEVXJ617fqwstNw9hqc8l4enOpQUzy/H7kGgEJXuKYsBpaSVREUCuEo1ZEpioGLYQq8/5p7sKx6T6XhZWiXdQFTkhQIMl/RA8qYXaVIywx+Eb2/xUMbKjst8MKUQlcFEv/PPDi8qo68dIwo8KsiIOoxoBJGWOu0CaXANATEcjFiYQ1IdqkEmbJHA06hu80wa4qySHvHxvJj/hcB7pre0G6qu3XLd5H7XDcmKm3fXc4t0PwKFqHR/Ge01ha0mKvGwegxjhK096p3E0sLaa339D0XX17WBnOsWoiLtzeSNR6UR0sFT00y5DQTrvu4pRKUvVIbvOR0Sw5mxOhBRQdCRE54PhESbJLyoCATvIePDg6ueG8Y0zKPuENfFY4UPcsJbYk6WoSX/eXLVdZ5Fc+sMO/MuOhry8TxpiM6S/55r9SFyxKuD3ESHrOrlzAkoX12FQCEqXVUcjSdGA2zVPiqNP70774AJhVU7+bc7Uzv8UlWIyvAr033liNeElwKB4M0gSApSgYAYDkbaEQ67X/Oi8KoY7hUGuRAm2qylw/G+ISTIx8Tc8Pby3CA4PC5IB0FUTOJFQHhNpIO3haiThpoQIsTJ8Kh0xRJlBKiQlQxVV34VotKVxVJ/ogpR6Y1VISq9MenkmUJUOol2dz0L0eAFISbZ6jCY84akIC7VuW4IBvJgYriVOrVEAZnhMYlhI2TGsFF/wsNi+Mk8GYTIME914rr7zKXhUTGRVlikJpYpd4M3sr+87e/nC1EZ4jWgEJXeBViISm9MOnmmEJVOot1dz+pr+BFJqSUh1VTHZPJCFKqolN9VBApRqaIxBH8XotK70PTArDqonXTXO2Q50w4ErELi0t+bcar3uRSUuQWNzHmqN+4SriBQEBgaCBSiMjTKqd9UIirGh7lUy+cNDCzltTeDY8Gk8/Ui5h0UotJvsy0XCgIFgQYQKESlAbC6MagJZcZjY7a7cdz9/WNysRUI9mjY37EYjPybpFg7N2Cgbad4VAaK3N7vswzYkMu+xLCNSar7EqTUnJRWkNN9Pave69JeK1YkVufJuN7Xudr7yv/BRaAQlcHFv2VPN75bPm9gEMrSsWDS+XoR+Leichei0goU94zDfiImvFp1U90Ubc9Qb/yznNjGhbXGvTasSbRW6cSqndrr+/rfyvkpCIpJslYE1Yqdcnlbq4JUxzvJqufL7+5BoBCV7imLkpKCQEGgBoFCVGoAafIvEmnbeMaaN3bUqFF5b5L+orXqxnLefREV+/3w6sYKnf7i6+u8uC1RbpWYm+YFqLburxUv9USoqmQacbPtfpHuRaAQle4tm5KygsB+j0AhKq2tAoiH90PZOZbYT8R7d+yBYs8RK7Ys67XhGrF7q2W8VbHnCE8MYsJzwYPhZZkmsMcwkeuWHjvaq8TSZMQoNmzzHPcZgrJhm7d9218lNjj0Wg7vygoCg8zYHC5WlO1t7yhDWvLonT7hqUFe5M8yaO8MIiZo87B4vvdjSaO0SjNCY2t+z5VuXhfX1EfiXGBmThaRF/u7WO4s7eIr0hoEClFpDY4lloJAQaANCBSi0lpQGVVvLmfwifltSAKj6106jDaiEq+08A4dL/oLEc7cLwQm3oCODCAWXryJCBHzlHg17Hvi/Tv2TDGM5F09fo8bNy4/E1lBaLzx2+R381xsyma4SRrsiSI9CJD4zj333LyizHb6QUIibY48JV7JIR82f5MuIry0i8u7iMjUqVPzniqGweRFfMjJsccem/MnDbwtMEPKpOeSSy7J6bcSDXFBvOwTw5MEE8+ArX1aAov8sPLVFAKFqDQFX7m5IFAQaCcChai0Fl1G9KSTTuohIoysYQ9GlRFmeEm8c4cnwZuJQxAbLwW0BH3y5MlxOh95JcI4IzhTpkzJ53kxeHDsWoso8Jx4I3h4anhvzjrrrJ64EAQrGYlt8KWXGLLhVSHhucl/Kl8mxvLsmJ9y9tln52Erl71/DBGRf/NREBhvh/d+IdvsezcZ4XXhcXEOibJBnK37Y1db4XiPEDDh5NPGdPByHiZIGjLWXxoryS0/60SgEJU6gSrBCgIFgc4jUIhKazE3HGGox+6shNHmLYAzr0O8+yaeast6hjoEQTnvvPPyfUFq4hqvBA8EMQcG4SAIC6+F5/ByGDYZMWJENv6uIw+GanhDXPOOnyAqhmCCREhH7HqbI+7jy3YNyBDigGDJE0Fa5N2wDkLmZYTnnHNO9uIgK7/85S9zOJ4QRCPmsHjzua373Yfo8PYgQ/CSVzgiLAiaicTOGU7itanFso/kllN1IlCISp1AlWAFgYJA5xEoRKX1mBui4BVhoHk7zMNAQEyy5RXgSSAMM2LA6Jrj4b/5F4w6b4TJqoZZiHkhPB/x3/AQkoAcOCIAPB1IgLhGjhyZSQtCYMgHeTC04n4G37b6vB6eZz4KAoOomNhreKg/4Z1xL/E8JCPmt4jPOWmXLlsYiF8eDfeIF/GQXmkIsmK+ifkuPEKGdnhZECleFWmXJvVUHnlSkBWep8Civ7SW8/UjUIhK/ViVkAWBgkCHEShEpT2AM7CMLu8Ag8zAMsiGWpACwpjzaDDmjDICY2hDOJ4GczwYcGL+CYOP8BDheVxMWBWH4R6/zffwDM9DHJAf4j4TZ4OE8IwgLhGfOSA8FcJ4dn+CqLiPqDuGcgzjyJN5JV5WiHAYlpEfQ1s8OoZvxOtez+ENibQJJ/0mDksXQfLkyyeWZPOqxDnXi7QOgUJUWodliakgUBBoMQKFqLQY0CajQ0AYcgaZka9n07gmH1luLwhk0hkrwIY6HG8b6hko6S8IFAT2RKAQlT3x6JZ/MTzULekp6RjeCBSPyvAu35K7gsCQRqAQlSFdfD2Jj/kePSfKj4JAAwgUotIAWCVoQaAg8P+3d9/B0hRVG8D9x/qMpVaZqiwVFdECVChiIUnJOeecc845p5ecJAhIBgmSkYwiICAKoghmgoKYM+b56tfluc477M27s/fue07V3t2d7enpfrrvPE+f093TLgIpVNrFuxdXM9/D6qGmF2Y48WLFjjkk5s/EMunJlMsmcuanNK8/mTzz3HYRSKHSLt55tUQgERgHAilUxgHWFExqDovlxiawhlkabELucPuMmIRroq4N1UyG1QdGMpNehxM9zvO7vMypSZueCKRQmZ7tlqVOBGYJBFKoTO9mtpcJURLGQ2LlkD1MLBvuZDww8bsVR3atHc6suDHBdySh4lyCyaZyVh6lTT8EUqhMvzbLEicCswwCKVSmb1MTBfZLsTcLIyYsH7bDrL1O7KfSySydtteJJcz2NbHdPlFjebAlwPYnscxYKOf222+vzjvvvJI2PDSxtJkHJZYOK4uN54SA0qYfAilUpl+bZYkTgVkGgRQq07ep7U1iE7nYoZVXg3eFl8Qzdexv0skIFc8XIkycf//99xehYudb2+7b9t9OsYSKjeV4bXhVCBXix267lk/b3t51Yq8YD2D0DKC06YdACpXp12ZZ4kRglkEghcr0bWqiwc6wRAQjUuzYaiv9GTNmlI3fOtWOwLFNvx1ePSOIaBEysjW+HXXNW4nN2AgWXpUw3pZNNtmkiCM7xQozxV4vV1999dC2/ZE+36cHAilUpkc7ZSkTgVkSgRQq07fZhXo8Vyg26iJchHB4SM4+++yyu2un2vHAmE9itY4db3fccceyc6zvwka2r48VPB4+yEvCm+IYobLddtsVcULoeDaP4871fCHb36dNPwRSqEy/NssSJwKzDAIpVKZ3UxMpwi+2wA/jVfHcnggJxfF4F7aJpxQL7ZijEh6UeEBgpNU/5C8cxHNjfopn+LiG7fDNc2EeF8CjkjY9EUihMj3bLUudCMwSCKRQmf7NbF4J8cHD4vlB5qDwlPB4dFqtwwvi+Tu8I8I20vCICPMI/8QE2UDGM3pM0o1nFBE1nhFEuPgsbCRkNNwqo8gn36cuAilUpm7bZMkSgVkegRQqg9EFiJLwikykRsSNcJFQz3hNWMiE2rTpi0AKlenbdlnyRGDgEUihMvBNnBVMBEZFIIXKqBBlgkQgEegXAilU+oV8XjcRmDoIpFCZOm2RJUkEEoEGAnGD6sYzXxpZ59dEIBGYJgiYt+R5UYNgrxuESmQdEoFE4H8IvPTSS2XfDO9WdOSrHQxMXrWcOPEeG942r7OyKfEaG17jxclOxPVHMfzvDjH9PqVQmX5tliVOBEZEwL4Xl19+eXXRRReVZaiWmOar9xhYEnzFFVck1mPsbzaWsyNu9s3u903Lz/XHm2++ecR7xXT5MYXKdGmpLGciMEYEco7KGIHqYjLLgYkUo960sSFg35Z8OvPYsJpIqggBT+TcqXZOCpWp1iJZnkRgkgiEUHn11VcnmVOePh4Errrqqpk2aRvPubNiWtv622AurTcICP3GDse9uUJ7uaZQaQ/rvFIi0AoCIVQ8/TatHQR4VAgVc1TSxobAAw88UD311FNjS5ypxo1AelTGDVmekAgkAm0hkEKlLaT/d50UKv/DYqyfUqiMFamJpUuhMjHc8qxEIBFoAYEUKi2A3LjEZISK3WedP5KNJc1I53f6TZ6T2fm2nqfyj1aHenqfU6g0Eenu9xQq3cUzc0sEEoEuItAPodIkPEt1Ywv24QjMxNPhfgOHZ9zUH8znuTOODWd+80ybkfIc7tzJHnfNsYR+pFOnmD/kKcX2uoinFXsGT9M8u2ekSafytGeO5b5WfD3//PPVK6+80symtIfnAQWG5jDIt9N+O54ZpB8xmD777LOvyc+BwNrvHmYobbMvdDyxR0KleW3hz9GeV1Rvj+HK6jic9OvxmGcpKUPg5NxmGT2uoJlmPNcYLm0KleGQyeOJQCLQdwT6IVRsLuUhd266bs4mSnrGDPL0MD1EHBY36ttuu60QKiKuC5JIh0jryyt97kTAznVdJHnJJZeUJwx7zk2bhojGIlTU/d57760ee+yx8oBBDwH0FGNE5b0++RFmcHXcEl74PvTQQwXTet1g/Mgjj1Tw9ADCY445pjrppJPqScpn4ui+++4rYsYB51l5A7sQL3HSnXfeWa6FnF988cXKE5k9eygEVqTTHtopVvB4CGK9DpGu03svPCrK+MwzzxRxoh/CF2b6SFOURT+86667qqeffrr0n+aqLWm0DVNXy37VLx7gGAKEgHEtAo9o8znOieuXA1VV8pNGHv435Hf77bd3FIxxzkTeU6hMBLU8JxFIBFpBoB9CxQ3+7rvvLk/u9dTfW2+9tTz912RJ34MUAIAUEPUdd9xRCBYJItq6ueFfe+21haDVx2j9zDPPrDxVuDmqvf/++8vThZ0j75dffrl6+OGH69n1/PNYhArhAQeeJnXi/bjlllsqRIkEH3zwwSIaorAEhCXPRxxxRHX44YeXz8cdd1ypa6Tx/txzz5X6emfyuuGGG+pJCnEjR7gQfIiUaLn00ksrosTmYIwwIYhOPPHE8vRkQomwsiePdiRuwggBYhTZqof85ONBiEHUkbbTey+ECu+JfgODJ554oggoK4t4rdS97j1ST78Rd08++WTps8Re3Qgz/dTv6gkr3+1T5OnSIcC1p+Nwu+6660pbEs7KQajAMYzwcR39HqaPPvpowa9etkg7mXdlGqtonMx12jg3V/20gXJeIxFoEQE3KEIgRoK9vrSbsBs6skauwguI7corryw3bQKibojywAMPrGz4xVNA1BAYdTP6PeSQQ8pvL7zwQiFehOK4a4TxBJx77rmFcGfMmFFu+AjQNRBA01MQ53X7faxChccBuUuPRC688MLqnHPOKWJF/ZBhGEEDG22pPlGvZngIicKICPKOQK+//vrIprwTGPCwCZjrEXzSXHbZZYUwwwNFfCDREDCwVobDDjusEDpRGP0KCfMi3XjjjdV5551XRIF2VB6iaDTrtlCx4irKhvSJAJgSbTaW8x3uYfAnLAgr/VC9YVc3wueaa64pddOfCTJ5NQWNc/R7eBLdRBIctJ0XrML0SaJOXoQ8HAjxblsKlW4jmvklAolA1xBoW6hwtxv5IwqjRzdrN2GjT2TYfN4IDwIvwQknnFAdf/zxZQTcJF95crMbzfOgIBSjWARr5BohCO9u+lznp59+ehEBQQJc6zHi7Rq4w2Q0FqHiVGSGIIVLiAYhMkRldM0TUMcK6SJZGDiHRwCRNj1KziEsYOAlVNSJ+Iigo446quDlWsSFF5KuG5yJSCEkbXjBBRcUwld2ZB9CEfauQ5QSngQN4VX3HtTzbX7utlAhKvQ9oUSCUP9R/sBEnyTEwojeM844ozr22GOrk08+uaQnKupG4OlPjPgSWhRWawprv/OkuL7+ffHFFxdRHSHQECoElHK6jrxgS/gQVNqkU7vVyzOezylUxoNWpk0EEoFWEWhbqKgcUSD04KaODI1C3Xx5AupeAmmFiBCu9AgFydYFBdJHMqeddlp1wAEHFPf8+eefX4gwYvvhKYmQEm8BzwqScC6vRZs2VqGiTMhKPYgB5GYEzutEiMAjjBBA/MgUmcEDniEUIp1zEKK5JMINdSwjDRGJPPfdd99Cjq7rHNfkKYiwg3MJCM+IgaO2IhIdQ8LNkI702g/pamfis19CRV2Vz3wUouSUU04pHh99UT15g6Ke0uoj5tbA3ougaXqCiEJ9ynnCmzCUL1HBExNtAXuiD26wEgIjhHx2HWE+5jjhCVvi1P+qyc88K+bWNOfIlJMm+CeFygSBy9MSgUSg9wi0LVTCnU4suNEjLu9u0sICbsBh0hrx87QYybth+y5kEW575GdkiUiNXt385ekc34miuiEmeSFLHh3E1PbGa2MRKtIgNuTIC0J0KDOCVG6iQMggzBwKxIbIhBqMwnmakG5dDBAq8Gsa0gscjOi1CVHiOojRiwBEotGG8ic2vZCy8AWi1raEijKFEYnqgYi1cSchE2k7vesfytAtC9FK+CmTuvIC6T8wIxBCqKgv3GAvfKUd9ENiqz4Ph1jU79RfPj7zbumD+qdresFFnzXPCG68JoSKstRDP/q4/LUnDyAPoevLt9uWQqXbiGZ+iUAi0DUE2hYqyA3RerlZm/TqZq4cbtR1oYJQEYQRqHdhHDd1xIIQiRTfhTzc8AkZx5CpSbIIlDAJM+J105efcphsiizatrEIFYSG3IzIiQ9hCeXmHUJgRArcGCHCKxAYqj+CU3ekGCQpLeyangDHpQsPiPIRK8SRNhDCkT9vTZ2YeWRc2zHE7Xtcr+4ZU2bhDwIA+RMcZ5111ri2xO+2UIGNPkW06oc8HMqn/OHti9CP34ks7QAPgo0oIQx5m0LgRZ9znvbTRtqsk0nj3JiTJb3+6X+gLiydC78QTUR4/X+kU94TOZZCZSKo5TmJQCLQCgJtCxXzS8T5zbtACLHiBMkRHxHPN3fAdzd/I1SkgqCRqZs7wkAWYb678TMjWPH8OiE7F7E7F7EgBNc2V0JZ2rSxCBXl0TZG2oznx3dm9QmPBAHBjMKRP/KDFdGAWOGMeOsGc2EN+cI6XkJv8glzLeEK1+BJIHB8lk6eEU6THp5G+0Siz+GtiryISWXmtXFd4jDamwAiBEIUxDnN924LFX1HeEy51Ec/YFFWwjCEsN/0JWVXDiKHGOSBISr0aUKD94kAZkQHYd3E3288ZbDWRq7B4KmPu1bkUX74728EjzLos3XxHWkm+669Q/hONq9+n5+rfvrdAnn9RKDLCLhBuWki8rYsRuVGqMQIs5LEChM3fxbhB5+DCJGwGzVyaxqxUV9dwYuAbGIk6uaOAGJDtBjxI25zCBB2zCFo5t3t72MVKvXrCqvEnARiCw5w6WRG8uY0mIAb4qaejpAjZggWL54noY5YzSOtNuL1khZGYdpL/nVhIa10gbV8CAD1rBvSDq+N41YqmVg9lv7XbaHi+oEfEQAHRkDxzLlefI8+SUzAjedFmFIYJkxePB0ECyNkTByui2XHCRP9njemLvb0PR4s+daxjfzlw6MVZYnj3XpPodItJDOfRCAR6DoC/RAqUQk35/ro0A18OMGE9Nysjex5T5omr+ZIlCipk4FzpDFqrluMVjsRRD1dtz5PRKh069r9ygeBN4XLeMrSC6ES19fuIZ4d8z9R/x7p4p0QI67qoqtTv+UNJHzqRqjwtoSgqf9GuI10XeXqdJ16HhP9nEJlosjleYlAItBzBPopVHpeuSl6gVlRqEy2KXopVCZbtkE4P4XKILRi1iERGFAE+iVUjCh5O3hCjBJ5OSJe3wlq6TqNQptpiQAhiJHSGkHH6F66kdI28+/G96kiVMzTiDlB9XopnxdvAC+WdLwAPAkR3qmnb+NzCpXeopxCpbf4Zu6JQCIwCQT6IYhPlcEAACAASURBVFQIA3MuzIEQlzdPwX4qI8XfzaEQyhnNhHbMIzBHoGkEEXFkToaJjOZeCCU1N5Brntft7/0SKnCvh7fMK4F/0whGk0SFN8z7gZF5GT4TLP2wNoXKWISrNhwkS6EySK2ZdUkEBgyBfggVRGiFhMmuVt8QLXY47bRCIuA2iXM4kiRKYq6LvAiRTqauJjG6tmWpyNcqi7EQU6f8JnqsX0KFN4ToiLkV9miBHVzND4r5FMSMicseS2BTNnuCxMoXdTaXom1rU6gQrkRZp36kH5qo3au5Im3jGtdLoRJI5HsikAhMOQT6IVSAwJtiGasVPG78iNAIfzgStKRVeMjLZNpYsSEvy1sRCwFkF1tLd3lnEI36Mb8hY8uW999//7LMFhnbFM5qDemFl9qwfgkVdYMx0idQ7GDLs0S42UckBAwS5sHabbfdqo033risirKCyDGrY2JZdBtYxTXaFCqE21prrVXNM888M3nbrGSaffbZq6OPPvo1k7SjnNP1PYXKdG25LHciMAsg0LZQsewYMSJJN3zPiIkdV43ciYlwqyNOXhdChrggQoiL5qZYRIh9RJAZT0nsCGq5c5Avr4k0ntOy8847l+cHCXtYQmqZKRKq78vSy6bvp1BRL14Ve87YmwVWvFBeYTwvvC020ROWk94W/nZvJfQ6hdXi3F69tylU1MGjALbbbruyl4zv+o/6zzvvvEP79QiP6W+8LDAjcPQpS8P9ZtWP/mv5O4+fJfQwtwQ59u6x4kyfJqqJZflYfi4f4r0tS6HSFtJ5nUQgERg3Am0LFXuBmPvAkxEPGiQUPHgQGdbnobjR2wTLvh2e4+MmT+gQFCFmosLCRvYWcYOXXpr6Uk+feQ9sTMabg1wIJOmRYJvWT6ECP/VHjt5hxmIZt7LBktdEaMxmb0gU2cKr09LwNrBrU6gQC/oib9+6665bsOF1I5BXW221IlQIDLvEKtcmm2xSvHg8ecQFTG2e5l1I074s8NTnCXR9mcDRR/fcc8/SLz1x2kM3CWvp9c899tijNbGSQqWNXpzXSAQSgQkh0LZQiUIiPqNNu58aSSIGYYWmAJEeQSBNN++mGekSP0a7wkKIw2jYiLZuvsvD9YQ5kAyytjspj02b1g+hYt6JOSgw5D1iyBKxxvyewACp2iZ+7733LvjwrhCNvFptTzyOMrUtVNSfaNh6662L4NBXbBIoFEaAKM+qq65avIN77bVX8T55HAThwTvFu6Jv7bDDDmVHW9+tsCKW11xzzaHnJi2zzDIl3KlfHn744SXv3XffvQhD4p3QacNSqLSBcl4jEUgEJoRAP4SKuSBu6sIuQglu+p5pE5M56xUhMIgQ74ij+WweBGoEav4EkxcPDUKor3DhUeHJOfXUU8sD3qTnXUAQbW8d3g+h4prmpxjRw9LqKBgIM/Ay8SKE8a4QM4SJZ/LwJvC+aKv6LrWRvo33NoWKUKJ6E8EErbkqPEswWnvttUtoRxhyueWWK3OgeAGFw4Rz9L311luveF30Z3hvsMEG5Rx9jXcqvIeus99++xVvDKFurpUnYO+0004FZ+f7/2zDUqi0gXJeIxFIBCaEQNtCxc3fM1NCqJgHgQQRA8EQ28SrjFGoZ8tYqdPpu2NIlafETd+IlZBByrwwrlM3k0SJHiNWngWjZATk+vUwUf2cXnzuh1BRD9gTiYSKsEaE2Qg4Yk9fkIbAE/4xQVm4h0AhVuCHiImVurDpBUbNPNsUKjxM5k/ZN0aoa6uttiqeE/1xxRVXLGKCqFhjjTUq3pSY5wMb3iieFE871r94DXnwbH/PAyN8eeCBB5YVVXDmsTn44IPLc5mk5Y1ZffXVi4Ax16U+d6iJSTe/p1DpJpqZVyKQCHQVgbaFCoIjLJAeEnADNxJ13I3ezZ0hBemaz0ohRnhFkEjMq5BePZwb2+j7TX7EirkASAHBIgOeGUIFQTOeBaTgmm1Yv4SKusHB5Nj6hFgrqEyu5VmBG0+TcBjxhrR5YghBxiMgnTBbm9amUOGlE5qEk34JK/Ul3nhICDg4EiW77rprESJWqwmRmcBtsqzvsLJaipAhCoWMzMsiVkxSJkIIdmKdR8UcFVibl2XFlbwIxzYshUobKOc1EoFEYEIItC1U6oVEhG7+YcRLECC3d6yMiN+9I0wCx3nIIo6Z3NgUGsQMoSJPxCHMEeIGGYchYwKoU+gp0nTzvZ9CJQTHSPVRvqlmbQqVturOm8cjQ7gQ0MKV/ZoDlEKlrVbP6yQCicC4EeinUBl3YQfkhH4KlekK4SAKFZ4aK4WE1oTiiO1+WQqVfiGf100EEoFREUihMipEXU+QQmX8kA6iUBk/Cr07I4VK77DNnBOBRGCSCLQlVIQcxPv7EVaoX7P+GXRRrknCOK7TuyFUlFuoy8s8Bi+fhdPGEt4ZrsDCZOZoCI2ZVyEcNxVsrEKlrd2FpwImyqAvNfv0RMqWQmUiqOU5iUAi0AoC3RQq5oyY/GqSoImqYu5W8jhmIqtJiPWt78dbQaQpX0tnreox6dBnKzBGulmbn6IczjUPpZ7WHJY2dwBVZ9c30XcyWBARO+64Y3XQQQcVgSIvS1232WabIjLGi630sLSXh4mdVgHZR8US8slaNyaEjiZUiGDta9mwSaz1uU+TLX83zoeBibJ2X46VbY4ppz6oj47XYmm+fCdrKVQmi2CenwgkAj1DoJtCRYzdPhBWPayyyiplPwjfbVtvwioBM5kRusm1lnJaPWEPCyRtQiIyRVTDmWvaPXSdddYppF5PZ8ItQdWmdUOoKK8VJ1aGhFkN5fEAIcR4WCxFblongeTYhhtuWOZMIFAvuJjoGYYYHWdxjU7eG4I1JjojZaJnIkQc1/U+mlCxasnOr9rTPiX63FQzQmqhhRYqK3oCN2LbYyRG6r/D1UN+W2655dBKueHSjeV4CpWxoJRpEoFEoC8IdFOoCDt4sW233bYsI0ZsRv9EhtEjwvI8H6NAyzmJF78RHLGZmJs4D4gXsg1zM0eo8nCDtrMqkz/i5FlBaOrUtH322acQe/24slmqbEkzT4vlpspvZZAyEjiuj0yQdpB0PY+JfO6WUFGnI488skzCVHdPO7btOuMd4cGyzPaOO+4odYmJm8QHUodbmP1qbEym3mHwFgqCj12DPW7AslriA0nec889hWBdBz6WkxNL2kD+sHXeEkssMWkyHU2o2Btn3333HWqzWNauv3ikAg9ciAP9w9452tuEVnXWB7WLfklUM79Jpx6EF8+HPmrpdjxKQKjJPj/27wlPibCZ73ayrZtl8nBZYIEFypJlv8EX9sppVZq+TRD6X9EXlScesOmY68JUv1S+o446qkzG5UmKFUPKpL76gL6sbsrO0xT/Y/Vy+ZxCpYlIfk8EEoEpg0A3hUq9UoRKfVRLiCBVI157Sxj1IlG7cBIcjlmq6UbspotcbJplK/OmQHBT32KLLcrmbXFNLnVEjJSFLDyAsG6dhArikj9yjVCKmztCsa8K8rffiryPPfbY4ilqlqV+jbF+7pZQQcwwQ4hEQpA1woQvskRMwkH2BIHZ5ptvXgjM5mPwD7Ofx2abbTZE0nHcu3bwQsBG//a+4SVxbWYDM54d273PNddcJdTnmTjyRJjLL7982TBOvSdqowkV9VtqqaWqFVZYYWiX4mhHwkJZlBlhn3vuuWUvGNvb65eOC5tpW32UgIZhiDz9SZ+Ej31U1NPzepgHbBJw8LF6h6hxHoEjTewLJC3BJ73dbldeeeUieAgg5/NGevSD9ISxrfj1Rdf2f8Qz6X+Kt9J+KzZIlJ9y22BOnbS5fIQyCUntYsM++aur/VyGCxOlUJloz8zzEoFEoOcI9FqoBDnZVM2NWyjCzf64444ro0deAERhNOgZKEZ9HgSHQKSxQ2gzbNAUKkSGkAdiZojZXIu4tmOdhIrjro3wmfIZ3SoLslJmT9C1dFR+tvmPfVjKCRP80y2hQijYlp0hPOVDTghOnYykGfLlRbHZGDyZtARHYIQ8eVQ6hYrioXvO0z62iEfcRvMMSZtzQ5R4dg3THkQNb4DzJ4vbaELFNXlRdtlll2qOOeYoohUO2p0QJkaVV5kCM8IN8esDhAOT3jHkbtM15E6gCDcKZ6o3jNSJQNRHeWT0SR4aOCgDQWLXWcI5jLCQj3fCYtllly2eKHuoEEaHHnpo2U+F58Sut/b2UR472+qTrk8AEaXKpBzaW78nsmzv73reCWzClajRfwmfkUR2CpVopXxPBBKBKYdAr4QKsVD3qBjVInvuavMJkAXXNlc474Wb9/rrr1+IANkhHd4XN+Nm/J5rnmcAKTCuckQTQgUhuYGHq18aI1NzOsIQpxdSMu+FKeOmm25aSJ1LHoG5Ds8KnFwniD3ymch7N4SKPIgBnoIwI3KhH6Nq5VYfAsZxo3Qjbs/vccxnoizqY6TNCwIPoQOYI09txOuFRB0X7vGkX4QNY+ExZG2eEBGz6KKLFtyRtPZGtgRohOeirON9H02o1AXWjBkzylb3vGXKKryoL/F2mIBMKDNeBiROyCgjg4/+yENERMOSV0qoxbwo3jX9QP0IBgJAvgw+zlNv14vzyo9VVcQGoeI3fU+f1G891kGfVla7/goBmU+lTQgrIlJo0gMRtSNB6PrK4VrKxPzPEVYEELHjOgSONlMXHqbhLIXKcMjk8UQgEeg7Ar0QKm7YRpxG8iEyeCeMDoV2bBlOoBAtCJNwcVNHFsjVaNENGhEI4TQn4CIlooY73CjRDdgN2+RaN2dhmvpKHqRApLi5C1+oM3Iijrwrl3wIG89ZQbzM3APXUVbzZYQN5DVZ64ZQIaR4TZQV3oiUQONlgRdsCDCeAYJL/bSH+hltq1Od3NWJFwDxCqERBuad8GbxTMhXGMFvyBs5E0WIGe48NEgYmWpjxKhs4R3g0VHOidpoQkWfQtiImTdOSEQYRXmERoRCiF99w/wmZdTPCBVeCCJE3xFeIQyI3pVWWqn0I5+JB99hpO4bbbRR8VjxWsCZeODtkJ/wk/6nL9cxlj+RFM+uIk6ITYIKNv4XhI9cg1iHPy+fY8rL0+h/giBUdv2YuCFO/G5gIGRK5PAgSeta+oB2jbk3ndoghUonVPJYIpAITAkEeiFU3DSN9N2UY1t6I0HubmThZk6cuOFLg4SMeoUiuNMdF3JBAr7HqD8AM9JEPjwCMUp0HfNc3KDDFR7p/YbI3MhNBkXiSBehIylzDiIfZeFBCUNAQgS8B0iwG9YNoSIPoimEU/O7cvKIqHvgh1AJDufwqnQyhEnA8aTUPVLSE5aBk3MRn5AHMeN36eUdos9315auKTY7XXukY6MJFaRMYMQTufUbRjwQJoSLesGDqBUSITaQuDoQxvqUvsGrpD7epeG5Izgs2+adIJ71ZaE11+GlIRqlUV8eEmKBwKiLM2Ew/d3/QhiBKWTEeFO0j+v6/1F25dFHiWT/H+biSEfcqI+JtTxm+rf/ZSatPkuYEuYEk/CRz8NZCpXhkMnjiUAi0HcEeiFU+l6pKV4AZIb8EGRbhjCFb8xRISSmm40mVCZSH3M5TEpNy1U/2QcSgURgCiOQQqX9xumHUOHREEoweo9wXPs1n/gVuy1U4MEDx6MSXqmJl276n5kelenfhlmDRGBgEUih0n7T9kOotF/L7l6x20IlxAnv0nT0MHUX3fSodBvPzC8RSAS6iMBUESrIuy1r81qd6pRCpRMqIx/rtlAZ+Woz/zpafxnt95lzG/lbN/Ma+Uoz/5oelZnxyG+JQCIwhRDot1AxmjX51nwNn00ANUmwaSYqmiRoFYPJtMpdn+zZTD/Sd5MgO11jpHO6+VuvhYr8TWA1IRSmwhydwj2Ow90EU8uH6xNlx1tf1wsvxXjPHUv6fgkVE1AtAzbHx0RwfbC5rw/sTLC1OsqEWSvYYDsRc7367sATyWMi56RQmQhqeU4ikAi0gkA/hQpCtQLC5moI1UoTEz4t02ya5aHzzTdfWQ1hXoH9Tqy86ETAce5wZGFpr1USlov2w3otVBCqpbmEnJU6VjtZadU0q0nsuWGllBUvcHfuSDacOCQgLUHvlfVDqBC0+po62zfGkvsFF1ywLCmuizqfbYJnXxbpLIW3dJvoHs6co883zbUsN7bUutPvzfTd+p5CpVtIZj6JQCLQdQT6KVSMHO2/UR9BWmIaG7DVK+umv8gii5T9MBy3BNSW6UawvC0I2U2e2DECtoTTcs4QI5YcG/HGqB8RWKbaD+ulUNGeRJj9SxhPB/FnaW3TiJJPfOITZV8Uv1kaaylv3WOgrGHytDw2jODjtWFEoSWzBEUvrG2hol76mOW/+pWJyDwn+ptn9Xivm+XAsfkeUb344ouX/WucQ/DIjzjhMYGh3XxjmbK+a/8Tni2mrxM60Xfr1+nV5xQqvUI2800EEoFJI9BPoRIbhNUrYWOwTgIC4S688MLFi2LPDPtW2AzLjd/qDctMjUAJFHm40dvsizixL4uRsaW59k9BGs6z+VldJNXL0cvPvRQqhB5swniceFTsL9I0e4DMO++8Q1vt22vELrREnT1AbJKmrPC2F4d9bQJz4tDDCG34ZvdZRkzwOvTC2hYqwpG2sRciJG6JFaYf8uY1Q4c2E7Tlvn139EU4WGFlrx8C0Hn6IfFj3xObG9rYjZCxhT7voHaKvXrszWJjvrYshUpbSOd1EoFEYNwI9EuoIEA3bNt+180uqsMJFW53YQohCzt32hEVgSDMtdZaq3x20xf2sE8Jj4rRrI2vbPQmX7uLqjMPgM28iKW2rVdCBaHamM6usGFEmV1oOwkVxDn77LMXDwyBw1MAfyN6RGo7eWazMA/aQ7jEHgLmCYuNzWzXz1vwzDPPlB1e7VzbbWtbqPC4zT///EMeuKiPEFr90QNxnFDZfvvti7ggZPQznj2ib8kllyzzVuAjrKMudsglUuIZTNoH5jZ5Y3b1DQ9NXKOX7ylUeolu5p0IJAKTQqCfQoWAsIV43dy4O81RMelzscUWGwr9mA8x55xzFte8iY5bbbVVESZIgAhx4/c8IS56xGEeDO8Kt7vQhhCR47aEb9t6JVTUC56edRNGqBip2xG1aSYle9qx8IYwBEHDiyAUIdTBI4WwkScR5Hdbw/sNdvC0nbtjPDc8NAi6Hh5qXnOi39sWKnagJYy1VZj6EsmdjFCJzeP8Ty299NIl5CYtQW7nWwKHx4Qnxc64PhPP+irxpw3Co+IceLdlKVTaQjqvkwgkAuNGoF9CRUGN1DfccMOhMiMFoRkj+eZEQq52xOEmj5C5xeeee+5CsjJAIMIYQhTMnAyjf0JFyAKJEDBGtbYtNx/Ac3wi/VAhWvjQK6FCLAj71D1ShIrRufkjTYMFoRJzIXimZptttrKyShnNFeKpQqKMsORFMZ+CN0pICKZxvhAQoUIAddvaFirqYk6UeTiwINaEZzyeQb0j3KWevHpCPXDWN+Fh/hRxwoQZeQCFyRivnxAanIgUISNC3HnSMvOKeLnashQqbSGd10kEEoFxI9BPoWK0bk6EsAFDeuabIEhu87oZbRIWvC0EjhCHkXxMjhXicczSUCb8Y4IjUvEcIcRhlOuBdYjHxFAeA8TStvVKqKgHbBBfGM8RPK3qiXkW8RtshDdMvoWLEI6RPHHDiEKrWWI+BqL2cDt4mgxqxRDClY7B3DNumiKz/DjJP20LFUJWqIsggYdQjadL64MeXFifTGs+C0+WF/yF3vRj4oNpbyImxI2Qm0nL5gHxXumnCy20UDkn+jMPDZzbshQqbSGd10kEEoFxI9BPoUKY3HTTTcWrgdzc0JGpl89187vjSMOrvixZHYgeYaO6yT/I2cjY3Av5ON9cA0tJ+2G9FCpW8pjbABPGe2TkjhzrokwZECzC9TKXIsIOzoMbcciDEoa8eaBgL9zGq+U7PBGseUDCG72wtoWKOghx6VPqqs4EtT7le92ib0oDi/rvJh3zXJkLJV1YPR/nmK/ifO3Cg8UDRmS2ZSlU2kI6r5MIJALjRqCfQkVh3aAff/zx4mIfd+H/O1o1QRGhxJLc0fJBHlZnNMXQaOd16/deChVltKdJhGUmUmaCTkiCiIynEI+WD+x5VnqFaT+ECgEhzKW/TNSEJD0B2fyWsZjVQUR3myJFuVKojKV1Mk0ikAj0BYF+CxWVNtI0mpyIIUaeACPUsRoC6qf1Wqiom3ANb8pEDFled911xRMwlvPVJ+ZWjCX9RNL0Q6hEOSfTX4i+2B8l8hvpve6NGSldt39LodJtRDO/RCAR6BoCU0GodK0y0ySjNoTKNIFizMXsp1AZcyGnccIUKtO48bLoicCgI5BCpf0WTqEyfsxTqIwfs/GckUJlPGhl2kQgEWgVgRQqrcJdLpZCZfyYp1AZP2bjOSOFynjQyrSJQCLQKgJxg5roHJFWCztAF7MDrJVIaWNDwD4msbx3bGdkqvEgYI6RVU6DYK8bhEpkHRKBROB/CNhkyi6cHqTmZpWv3mNgjxhLiK2oSbxHx9teI5Y924048Rodr/FiFA9F5LUaBEuhMgitmHVIBGoIWBny1FNPldGqvTTsuZGv3mJAoNidlIcgMR8dayLafi0ekph4jY7XeP9/YWpzOXvwDIKlUBmEVsw6JAKJQCKQCCQCA4pACpUBbdisViKQCCQCiUAiMAgIpFAZhFbMOiQCiUAikAgkAgOKQAqVAW3YrFYikAgkAolAIjAICKRQGYRWzDokAolAIpAIJAIDikAKlQFt2KxWIpAIJAKJQCIwCAikUBmEVsw6JAKJQCKQCCQCA4pACpUBbdisViKQCCQCiUAiMAgIpFAZhFbMOiQCiUAikAgkAgOKQAqVAW3YrFYikAgkAolAIjAICKRQGYRWzDokAolAIpAIJAIDikAKlQFt2KxWIpAIJAKJQCIwCAikUBmEVsw6JAKJQCKQCCQCA4pACpUBbdisViKQCCQCiUAiMAgIpFAZhFbMOiQCiUAikAgkAgOKQAqVAW3YQanWP//5z8rr3//+d3n3+R//+MegVK8r9YDNaPaf//xnCMfh0kpTt3/9618F9/qx+Ny85t///vdh08Y58e7c5rXit/G+y2ci+elD+lK3TP0nYjAeztRNOetYj9b367jG+fVjcS15qn/85nM38Yjr5Hsi0A0EUqh0A8XMo+sI/OIXv6guuuii6oorrqiuueaa6rrrrht6XX311dX5559fPf30012/7lTP8Je//GX1/e9/v9T9N7/5TfXSSy9VJ598cvXkk09Wvv/lL3/pWIXf//731bXXXls9++yzHX938Kqrrqq+8Y1vlN//9re/lfTf+ta3XpMeyd19993VrbfeOvTb2WefXX3ta18rxKocQYBDCaqq+u53v1s9+OCDlbKcd9551csvv1z/eejzF7/4xernP/95+f7b3/62+vGPf1z94Ac/qJ577rnqz3/+81A6H37605+Wcvzxj38sx++7777qRz/60VCaTuXw44wZMyrX+epXv1ryGDqhqqq//vWv1eOPP15eyvy9732veuaZZ8oL3vU8YUFsyO/+++8v2RAtygBL5zfLLNE999xT6qUtL7zwwvrlhz4rh/8B/wthl19+eeX1wx/+sHrhhRequkDyf/Ltb387kla//vWvq0svvbTSZ5qmTur/6quvVn/4wx+q448/vvSfZrr8nghMBQRSqEyFVsgyvAYBJDjXXHNVN9xwQ3XJJZdUq666anXMMcdUl112WREsSy+9dHX00Ue/5rw44Cb/8MMPdyQJaRDwHXfcUf3kJz+JU8b1jqCQEOL/zne+Uz3//PND5xMLjzzySCEjxFEnk0iEpJUBocnngQceKMT40EMPlfMIj8cee6z62c9+FqeUEe9BBx1U7bnnntVnPvOZ6tBDD62+8IUvFGyOPfbYavfdd6++8pWvDKWvf3jllVeq4447rvr6179ePzzT5/XXX3+INJHcAQccUMhspkT//XLxxRdXW2yxRREbhIS2+NznPlfIeqeddnrN6Jx42WCDDQrxIvq11167OuOMM16TNSyWW265IsaM8NVr2223rQ455JBqk002KaI1hIJ3eB155JGlHL/61a+qJZdcsiKaiK4777yzlEM+BE+8iJpVVlmlguVRRx1V7brrrtWf/vSnobIQSRtvvHE177zzlj641157FSze+973lnLUvSAEjD651VZblfKde+651fXXX18tv/zy1WKLLVa95S1vqW6++eahvH0g1lZeeeXqqaeeqrTLpz/96dL29UT6zKOPPlqtvvrq5Xz9mRGlG220UakzvAknRgz5nyAWCRP/N8TgiiuuWCmT78QNI05833fffYvYcZ33v//91V133VXaD6bKlZYITBUEUqhMlZbIcsyEQNzsHSRQ5ptvvkK0SBrh7LPPPoU0Zjrpv18QCVL+v//7vzIKbqYhIlZbbbXqda97XbXwwgsXwdBMM9J3IgN5HXbYYWU0b2SKqJAjQ/Kf/exnS/4nnXRSFaP9yJO4QUBG4TwAiO7d7353temmm5Z6KpeR8B577FEECSJhCEa9iR9kvMgiixRCJSikQWC8DmGEzjnnnFPyOuGEEwoh7rzzzhWP1BFHHFHddNNNJSlSJLaIH+SFQBGi/HfbbbdSTh6GpvFy8AzsvffeRTDtsMMO1ZlnnlmwaKblGUDe6sDUAYneeOONMyU966yzqttvv72Qs7wPP/zwIvokQrxIN4QCkbDNNttUK620UvGwbbbZZtXHPvax4gmSt/IQM8oJa6IHDrCbY445qmWWWaZ8l8eXvvSlmcrhCyErPePVkL+86kZorrDCCkU0wmy22WYrYuzggw8uOK677rpFPMQ56k/gEUlhPCSEeN0TxFuoT33qU5+q1ltvvYIr8bDOOutU++23X/XNb36zlCmw4BGBPZGhzMTijjvuWMQWIbbLLrsU4eaa2ppQJOr0DwLQC9ZeRBSPZQjCKGe+9+dlCQAAChNJREFUJwL9QiCFSr+Qz+uOiIAR35prrllIC+kggy233LIQpxEywUIodDJekjnnnLMIhabHxLkI0KgWcREFRuRjNXMEEIXRdYxQnYv43/nOdxbviO/bb799yZtrv2lbb711+e2UU04Z+gnJCUMQMMrECA2fCRHGi8ODQiQRFQSC8AIhx0PQJH3HkbCQD3JefPHFyznS8W4oBzyMxgnDT37yk4XAeF0IJUKF12PBBResoqzKIAzHe0NQ8EQgPaEg32GqjHVDngsssEAhfsTK4+S6V155ZTnOW6IMvAPKSExtuOGGpZ3i8+mnn14tu+yylfcgUKKM+Hnf+95XPEFEFrLmgVE+nh5GWGpvAhVeSJ6IcY3bbrutEDgPVt1cQ91DqGhzng8CpC4GeToIGFgrG7x5cggH7eN4iDN5auelllqq5EEgwk/o5cADDyxYEK1M2xMb+qZ8CBbl2W677UoejjuH8ebxiMBCGbWlvqkN9RPleuKJJ0paf3ieiJFFF120pNV+995771DoRxl5awLnoRPzQyLQJwRSqPQJ+LzsyAgY4RplGt0bjb/rXe+q3vzmNxfC/d3vflcEi9Ff0wgTIZXwmNRDMtIiyhiFGjG//e1vH/IsNPPq9N2o9qMf/Wi11lprzfQzInjTm940FI5ClkSGUEbTLrjgghISeMMb3lBG9Z///OeLl0i5whPD64LkPvjBDxYBIw/EYTR84oknVptvvnnJFvkiL14FHhV1qocJzFtgSBHRRXmIIvgRDfL1rk6nnXZa8XbIh0iAH9IVjon5La6J3AhJZrTOq2TuCTFRJ31EjECJIi/hCSEmo3xCgaBTfmQtZCEfdeH1IV54lQi1W265pXiceFyIJabchAEchXDMqyF+3va2tw31nZKwqgpp8xrAjUgjcomQEBGRLt61Be8FkUZAqbNrCwdF/ZSDOIOTFyFNsBI1PGm+ExnR3whAgs0xeWtr5Vd/Xhbl07ZMfyLGCRJl/cAHPlDEIiEGG32IKGGEh/YiPPbff/9yPcJRv3I+oUKs6gOMh48gJrYJUOEi/2v6hrJKP9y8mZJB/kkEWkYghUrLgOflxoaAUT9yRFxIiBsbGRjR8g4gHDfhuplbgKgQCxIkFEwa7GQIyqhbSMDNeayjR3NGhGnkXzchgde//vWFpBwfTqggNy8TL3mKlPGNb3xjSa9MPEeOmSPxnve8p5BGXIcAMdpFQAsttFApO3JD+sQcTOATE1EJE14SYsCo/0Mf+lAREjwyCBOeQV6u4ZoIStkRrVG3MBvi4ulA1CGCEJ9QFeOlUG4kusQSS8w0P4UHStiIuOQtQM7mHMU5wk8hluRljg1PAg8IQaA+iJmI0d7CP9FePGPCN/oGbwpBJKRivo9+oCzKrG0JXmk+8pGPVF/+8pcLKTuX8OtkMBQaITrgwXiSiLbAQL68K0J+PBDCUoShOvF26HtEEQ+HtOqgHEKDQnjEtLLKV1/gfQvhBDMiTZ1hwGOijZVHuMb/B29JGLGhT/JEugYBReAJgRI6zuXF0veIUfO/hJaIW2Eeolh/8f/g/0v6tERgqiCQQmWqtESWYyYEeFQQD6I00kNWbtJu0CZmIudm6Mfk2Y9//ONl3sk73vGOQvhIBlka7SOKMDdnJIaQeAr8PhYzGkXKwiJBKs4zYfKtb31rGbn63in0g5zNdUCUxBQPgDITHcSJ33kpeAjUk4Ax0lVfhiCNmJEIEuM9kt4xk49hYmSNkJjRMq/Biy++WEbozkGa6ozwkWmQrvSIjtggQhC+kb/fkZgRvHklyszMq+BVIbjkr23UX77DmToZyYcRCgi2bsSjdkeW8iawCA4CYZ555ilCTXrYEwe8Dq4p1MGbweOByNWF0EDaYbxIBAEjdhB9EDICr4tVng2i0HXkS9RpU/Ni6qYdCb9TTz21hLyID94XQkSfUm51qk/Wdb78iAhmboqyEGxh8uCpkg+vy9xzz10EERFHGOlDPFNMm/BW6StwI360PdERq6KEunio/A8QnkJ02lr/45mBo5DUpptuWrw9sE1LBKYKAilUpkpLZDlmQsDI0I3TiN/EQuLABEg3aETsht0M/SBVI2TeDUIC+QcRIhk3ZCN7XgMTbaUxwpZ3naRmKkiHL+YgIESjdiNqRMN1b+KksikH0nB9AoagQCBGsEQTgiEaeGeQPJKYf/75S9lNGnYeUYAsfEYeBBKiMUJXd/nzOAi18H4IFSArnogwZIWMkBOxh/SUR6jA/AUj9bpQUS7EbcSPGM0tQczKFxN6I2+eLhha7cMToEywRIjKjvjrpq7EA69DGAwjFOUYbLQdrwqPgBCe/M2fYEb8EZLQXsJFvCrEGAHIm6GOwlXahoAwP0Va14fT7LPPXkSXFS5EHRxdD3lLw8xbIXLgFP1F6EW4hqejLlBdS4jHMnp9TR+DG2+GuTpCR4ReiEf5q4/wVmBKlJjUXTf9mFCSNwyILPNWiDYeNUJSP2QEjnLx5BCihAohIo1+oRz6EOGkXYg0IpAAC9yUWXkIF96zkQRnvZz5ORFoA4EUKm2gnNcYNwJG32Lo4VI3SiZMuMLdeE0uNAlzOEM8iAXRMB4B57sxIxGeCC8jfGQ+XuPWl6e5E7w9SBLRMsLANVzfDR95EBFG3YwIQxLeuf254nl1kB6id558eVKIBGRF7BBFCI0ngjBwjvCMUTwyhIm5CWGOmXeCoBGXMiiX+grzEG910pUXTwJiRHKEgHIif7iFIX51QWiEg/AB7wpy5dX58Ic/POSpcA4CR8zqBiPigUhyfn0ZLGFAXKmbMJbl1+oq9IeEeRa8CJgwBCsvIkNZTCoWYlIOdeQ9Qs68R0QeDxsRA2v1MD+EADYh1zHCjeAkqIg2fYxng8DTf+TvHAKT2cuEqJE3bIVUrOTSbsSgF4HJ5C3sxYOm7zATe63qUa+m6Uc8L4QwkSLM5/+AMFxjjTVKXXgc1VE5CW7tQETyhukrvI68SPCvrz4j+JXRuWHaQl8ktgiZtERgqiCQQmWqtESWYyYEjMp5HRC2sIZRrpurkbZ3giVGlDOdOMBfEAlcEGwY4jOaNko2Uq8vcSVaCD7E5rgwgJUwPiNT5BviSn4EIGx5GpAaEYOwiKS6IX6jb2EV5xAz9bkuCD5WrzgPWSPMuJYyIHVegroJYfDgRJhE+5pXQnQSUN696nvB8MAQfAjbceXhgVMPgiSEKrGE+JvmmjwyQoGMmFA+olAZmxjxABEFfmfyJERh6jOvDxHLw1L3VknLo0HswCNMmxFRBE/TeEpgoC0I4bqg9htBIvSkPcJzFHnANiY/q6M2rYeWlFf/qIsX/UOYStnlmZYITBUEUqhMlZbIcsyEQJ2MZ/ohvyQCNQT0k6nYV6ZimWqw5cdEYFohkEJlWjVXFjYRSAQSgUQgEZi1EEihMmu1d9Y2EUgEEoFEIBGYVgj8P9VrrpvAeT+0AAAAAElFTkSuQmCC;" vertex="1" parent="1">
          <mxGeometry x="60" y="40" width="554" height="274" as="geometry" />
        </mxCell>
        <mxCell id="VcqIoBvr8ESshaTQJHk_-2" value="&lt;font style=&quot;font-size: 16px&quot;&gt;IP首部&lt;/font&gt;" style="rounded=0;whiteSpace=wrap;html=1;" vertex="1" parent="1">
          <mxGeometry x="80" y="360" width="80" height="60" as="geometry" />
        </mxCell>
        <mxCell id="VcqIoBvr8ESshaTQJHk_-3" value="&lt;font style=&quot;font-size: 16px&quot;&gt;UDP首部&lt;/font&gt;" style="rounded=0;whiteSpace=wrap;html=1;" vertex="1" parent="1">
          <mxGeometry x="160" y="360" width="80" height="60" as="geometry" />
        </mxCell>
        <mxCell id="VcqIoBvr8ESshaTQJHk_-4" value="&lt;font style=&quot;font-size: 16px&quot;&gt;OLSR分组首部&lt;/font&gt;" style="rounded=0;whiteSpace=wrap;html=1;fillColor=#dae8fc;strokeColor=#6c8ebf;" vertex="1" parent="1">
          <mxGeometry x="240" y="360" width="120" height="60" as="geometry" />
        </mxCell>
        <mxCell id="VcqIoBvr8ESshaTQJHk_-5" value="&lt;font style=&quot;font-size: 16px&quot;&gt;消息首部&lt;/font&gt;" style="rounded=0;whiteSpace=wrap;html=1;fillColor=#e1d5e7;strokeColor=#9673a6;" vertex="1" parent="1">
          <mxGeometry x="360" y="360" width="100" height="60" as="geometry" />
        </mxCell>
        <mxCell id="VcqIoBvr8ESshaTQJHk_-6" value="&lt;font style=&quot;font-size: 16px&quot;&gt;消息&lt;/font&gt;" style="rounded=0;whiteSpace=wrap;html=1;" vertex="1" parent="1">
          <mxGeometry x="460" y="360" width="80" height="60" as="geometry" />
        </mxCell>
        <mxCell id="VcqIoBvr8ESshaTQJHk_-7" value="&lt;span style=&quot;font-size: 16px&quot;&gt;...&lt;/span&gt;" style="rounded=0;whiteSpace=wrap;html=1;" vertex="1" parent="1">
          <mxGeometry x="540" y="360" width="60" height="60" as="geometry" />
        </mxCell>
        <mxCell id="VcqIoBvr8ESshaTQJHk_-8" value="&lt;font style=&quot;font-size: 16px&quot;&gt;消息首部&lt;/font&gt;" style="rounded=0;whiteSpace=wrap;html=1;" vertex="1" parent="1">
          <mxGeometry x="600" y="360" width="90" height="60" as="geometry" />
        </mxCell>
        <mxCell id="VcqIoBvr8ESshaTQJHk_-9" value="&lt;font style=&quot;font-size: 16px&quot;&gt;消息&lt;/font&gt;" style="rounded=0;whiteSpace=wrap;html=1;" vertex="1" parent="1">
          <mxGeometry x="690" y="360" width="80" height="60" as="geometry" />
        </mxCell>
        <mxCell id="VcqIoBvr8ESshaTQJHk_-11" value="&lt;font style=&quot;font-size: 16px&quot;&gt;消息类型&lt;/font&gt;" style="rounded=0;whiteSpace=wrap;html=1;" vertex="1" parent="1">
          <mxGeometry x="360" y="500" width="100" height="60" as="geometry" />
        </mxCell>
        <mxCell id="VcqIoBvr8ESshaTQJHk_-12" value="&lt;font style=&quot;font-size: 16px&quot;&gt;有效时间&lt;/font&gt;" style="rounded=0;whiteSpace=wrap;html=1;" vertex="1" parent="1">
          <mxGeometry x="460" y="500" width="100" height="60" as="geometry" />
        </mxCell>
        <mxCell id="VcqIoBvr8ESshaTQJHk_-13" value="&lt;font style=&quot;font-size: 16px&quot;&gt;消息长度&lt;/font&gt;" style="rounded=0;whiteSpace=wrap;html=1;" vertex="1" parent="1">
          <mxGeometry x="560" y="500" width="100" height="60" as="geometry" />
        </mxCell>
        <mxCell id="VcqIoBvr8ESshaTQJHk_-14" value="&lt;font style=&quot;font-size: 16px&quot;&gt;消息源地址&lt;/font&gt;" style="rounded=0;whiteSpace=wrap;html=1;" vertex="1" parent="1">
          <mxGeometry x="360" y="560" width="300" height="60" as="geometry" />
        </mxCell>
        <mxCell id="VcqIoBvr8ESshaTQJHk_-15" value="&lt;font style=&quot;font-size: 16px&quot;&gt;消息转发最大次数&lt;/font&gt;" style="rounded=0;whiteSpace=wrap;html=1;" vertex="1" parent="1">
          <mxGeometry x="360" y="620" width="100" height="60" as="geometry" />
        </mxCell>
        <mxCell id="VcqIoBvr8ESshaTQJHk_-17" value="" style="edgeStyle=orthogonalEdgeStyle;rounded=0;orthogonalLoop=1;jettySize=auto;html=1;fontSize=16;" edge="1" parent="1" source="VcqIoBvr8ESshaTQJHk_-16" target="VcqIoBvr8ESshaTQJHk_-14">
          <mxGeometry relative="1" as="geometry" />
        </mxCell>
        <mxCell id="VcqIoBvr8ESshaTQJHk_-16" value="&lt;font style=&quot;font-size: 16px&quot;&gt;消息已被转发次数&lt;/font&gt;" style="rounded=0;whiteSpace=wrap;html=1;" vertex="1" parent="1">
          <mxGeometry x="460" y="620" width="100" height="60" as="geometry" />
        </mxCell>
        <mxCell id="VcqIoBvr8ESshaTQJHk_-18" value="&lt;font style=&quot;font-size: 16px&quot;&gt;消息序列号&lt;/font&gt;" style="rounded=0;whiteSpace=wrap;html=1;" vertex="1" parent="1">
          <mxGeometry x="560" y="620" width="100" height="60" as="geometry" />
        </mxCell>
        <mxCell id="VcqIoBvr8ESshaTQJHk_-19" value="" style="shape=flexArrow;endArrow=classic;html=1;rounded=0;fontSize=16;width=11;endSize=5.5;" edge="1" parent="1">
          <mxGeometry width="50" height="50" relative="1" as="geometry">
            <mxPoint x="414" y="490" as="sourcePoint" />
            <mxPoint x="414" y="430" as="targetPoint" />
          </mxGeometry>
        </mxCell>
        <mxCell id="VcqIoBvr8ESshaTQJHk_-20" value="&lt;font style=&quot;font-size: 16px&quot;&gt;分组长度&lt;/font&gt;" style="rounded=0;whiteSpace=wrap;html=1;" vertex="1" parent="1">
          <mxGeometry x="130" y="500" width="100" height="60" as="geometry" />
        </mxCell>
        <mxCell id="VcqIoBvr8ESshaTQJHk_-21" value="&lt;font style=&quot;font-size: 16px&quot;&gt;分组序列&lt;/font&gt;" style="rounded=0;whiteSpace=wrap;html=1;" vertex="1" parent="1">
          <mxGeometry x="230" y="500" width="100" height="60" as="geometry" />
        </mxCell>
        <mxCell id="VcqIoBvr8ESshaTQJHk_-23" value="" style="shape=flexArrow;endArrow=classic;html=1;rounded=0;fontSize=16;width=11;endSize=5.5;" edge="1" parent="1">
          <mxGeometry width="50" height="50" relative="1" as="geometry">
            <mxPoint x="279.5" y="490" as="sourcePoint" />
            <mxPoint x="279.5" y="430" as="targetPoint" />
          </mxGeometry>
        </mxCell>
      </root>
    </mxGraphModel>
  </diagram>
</mxfile>
